<mxfile host="app.diagrams.net" agent="Mozilla/5.0 (Windows NT 10.0; Win64; x64) AppleWebKit/537.36 (KHTML, like Gecko) Chrome/133.0.0.0 Safari/537.36 Edg/133.0.0.0" version="26.0.16">
  <diagram name="Page-1" id="929967ad-93f9-6ef4-fab6-5d389245f69c">
    <mxGraphModel dx="1711" dy="1189" grid="1" gridSize="10" guides="1" tooltips="1" connect="1" arrows="1" fold="1" page="1" pageScale="1.5" pageWidth="1169" pageHeight="826" background="none" math="0" shadow="0">
      <root>
        <mxCell id="0" style=";html=1;" />
        <mxCell id="1" style=";html=1;" parent="0" />
        <mxCell id="BjsAdJwaR5bysByXlGA6-1" value="&lt;p style=&quot;margin:0px;margin-top:4px;margin-left:7px;text-align:left;&quot;&gt;&lt;span&gt;req&lt;/span&gt;&amp;nbsp;[requirement] Requirement Global&lt;/p&gt;" style="html=1;shape=mxgraph.sysml.package;overflow=fill;labelX=218.33;strokeWidth=2;align=center;fontStyle=1" parent="1" vertex="1">
          <mxGeometry x="430" y="40" width="2780" height="1179" as="geometry" />
        </mxCell>
        <mxCell id="BjsAdJwaR5bysByXlGA6-2" value="" style="fontStyle=1;align=center;verticalAlign=middle;childLayout=stackLayout;horizontal=1;horizontalStack=0;resizeParent=1;resizeParentMax=0;resizeLast=0;marginBottom=0;" parent="1" vertex="1">
          <mxGeometry x="1580" y="60" width="200" height="172" as="geometry" />
        </mxCell>
        <mxCell id="BjsAdJwaR5bysByXlGA6-3" value="&amp;lt;&amp;lt;requirement&amp;gt;&amp;gt;" style="html=1;align=center;spacing=0;verticalAlign=middle;strokeColor=none;fillColor=none;whiteSpace=wrap;spacingTop=3;" parent="BjsAdJwaR5bysByXlGA6-2" vertex="1">
          <mxGeometry width="200" height="16" as="geometry" />
        </mxCell>
        <mxCell id="BjsAdJwaR5bysByXlGA6-4" value="Outil de Surveillance" style="html=1;align=center;spacing=0;verticalAlign=middle;strokeColor=none;fillColor=none;whiteSpace=wrap;fontStyle=1" parent="BjsAdJwaR5bysByXlGA6-2" vertex="1">
          <mxGeometry y="16" width="200" height="18" as="geometry" />
        </mxCell>
        <mxCell id="BjsAdJwaR5bysByXlGA6-5" value="" style="line;strokeWidth=0.25;fillColor=none;align=left;verticalAlign=middle;spacingTop=-1;spacingLeft=3;spacingRight=3;rotatable=0;labelPosition=right;points=[];portConstraint=eastwest;" parent="BjsAdJwaR5bysByXlGA6-2" vertex="1">
          <mxGeometry y="34" width="200" height="8" as="geometry" />
        </mxCell>
        <mxCell id="BjsAdJwaR5bysByXlGA6-6" value="text=&quot;L&#39;outil de surveillance devra&lt;br&gt;mesurer l&#39;état du terrain, ainsi que les conditions météorologiques, archiver ses données, les analyser puis les mettre à disposition de l&#39;opérateur.&quot;" style="html=1;align=left;spacing=0;verticalAlign=middle;strokeColor=none;fillColor=none;whiteSpace=wrap;spacingLeft=10;" parent="BjsAdJwaR5bysByXlGA6-2" vertex="1">
          <mxGeometry y="42" width="200" height="88" as="geometry" />
        </mxCell>
        <mxCell id="BjsAdJwaR5bysByXlGA6-7" value="Id=&quot;*&quot;" style="html=1;align=left;spacing=0;verticalAlign=middle;strokeColor=none;fillColor=none;whiteSpace=wrap;spacingLeft=10;" parent="BjsAdJwaR5bysByXlGA6-2" vertex="1">
          <mxGeometry y="130" width="200" height="16" as="geometry" />
        </mxCell>
        <mxCell id="BjsAdJwaR5bysByXlGA6-8" value="" style="html=1;align=center;spacing=0;verticalAlign=middle;strokeColor=none;fillColor=none;whiteSpace=wrap;" parent="BjsAdJwaR5bysByXlGA6-2" vertex="1">
          <mxGeometry y="146" width="200" height="26" as="geometry" />
        </mxCell>
        <mxCell id="BjsAdJwaR5bysByXlGA6-9" value="" style="fontStyle=1;align=center;verticalAlign=middle;childLayout=stackLayout;horizontal=1;horizontalStack=0;resizeParent=1;resizeParentMax=0;resizeLast=0;marginBottom=0;" parent="1" vertex="1">
          <mxGeometry x="675" y="300" width="200" height="120" as="geometry" />
        </mxCell>
        <mxCell id="BjsAdJwaR5bysByXlGA6-10" value="&amp;lt;&amp;lt;requirement&amp;gt;&amp;gt;" style="html=1;align=center;spacing=0;verticalAlign=middle;strokeColor=none;fillColor=none;whiteSpace=wrap;spacingTop=3;" parent="BjsAdJwaR5bysByXlGA6-9" vertex="1">
          <mxGeometry width="200" height="16" as="geometry" />
        </mxCell>
        <mxCell id="BjsAdJwaR5bysByXlGA6-11" value="Robot" style="html=1;align=center;spacing=0;verticalAlign=middle;strokeColor=none;fillColor=none;whiteSpace=wrap;fontStyle=1" parent="BjsAdJwaR5bysByXlGA6-9" vertex="1">
          <mxGeometry y="16" width="200" height="18" as="geometry" />
        </mxCell>
        <mxCell id="BjsAdJwaR5bysByXlGA6-12" value="" style="line;strokeWidth=0.25;fillColor=none;align=left;verticalAlign=middle;spacingTop=-1;spacingLeft=3;spacingRight=3;rotatable=0;labelPosition=right;points=[];portConstraint=eastwest;" parent="BjsAdJwaR5bysByXlGA6-9" vertex="1">
          <mxGeometry y="34" width="200" height="8" as="geometry" />
        </mxCell>
        <mxCell id="BjsAdJwaR5bysByXlGA6-13" value="text=&quot;Le robot servira à transporter le pénétromètre pour mesurer le terrain.&quot;" style="html=1;align=left;spacing=0;verticalAlign=middle;strokeColor=none;fillColor=none;whiteSpace=wrap;spacingLeft=10;" parent="BjsAdJwaR5bysByXlGA6-9" vertex="1">
          <mxGeometry y="42" width="200" height="48" as="geometry" />
        </mxCell>
        <mxCell id="BjsAdJwaR5bysByXlGA6-14" value="Id=&quot;1.1&quot;" style="html=1;align=left;spacing=0;verticalAlign=middle;strokeColor=none;fillColor=none;whiteSpace=wrap;spacingLeft=10;" parent="BjsAdJwaR5bysByXlGA6-9" vertex="1">
          <mxGeometry y="90" width="200" height="16" as="geometry" />
        </mxCell>
        <mxCell id="BjsAdJwaR5bysByXlGA6-15" value="" style="html=1;align=center;spacing=0;verticalAlign=middle;strokeColor=none;fillColor=none;whiteSpace=wrap;" parent="BjsAdJwaR5bysByXlGA6-9" vertex="1">
          <mxGeometry y="106" width="200" height="14" as="geometry" />
        </mxCell>
        <mxCell id="BjsAdJwaR5bysByXlGA6-16" value="" style="fontStyle=1;align=center;verticalAlign=middle;childLayout=stackLayout;horizontal=1;horizontalStack=0;resizeParent=1;resizeParentMax=0;resizeLast=0;marginBottom=0;" parent="1" vertex="1">
          <mxGeometry x="2010" y="300" width="200" height="132" as="geometry" />
        </mxCell>
        <mxCell id="BjsAdJwaR5bysByXlGA6-17" value="&amp;lt;&amp;lt;requirement&amp;gt;&amp;gt;" style="html=1;align=center;spacing=0;verticalAlign=middle;strokeColor=none;fillColor=none;whiteSpace=wrap;spacingTop=3;" parent="BjsAdJwaR5bysByXlGA6-16" vertex="1">
          <mxGeometry width="200" height="16" as="geometry" />
        </mxCell>
        <mxCell id="BjsAdJwaR5bysByXlGA6-18" value="Station Météorologique" style="html=1;align=center;spacing=0;verticalAlign=middle;strokeColor=none;fillColor=none;whiteSpace=wrap;fontStyle=1" parent="BjsAdJwaR5bysByXlGA6-16" vertex="1">
          <mxGeometry y="16" width="200" height="18" as="geometry" />
        </mxCell>
        <mxCell id="BjsAdJwaR5bysByXlGA6-19" value="" style="line;strokeWidth=0.25;fillColor=none;align=left;verticalAlign=middle;spacingTop=-1;spacingLeft=3;spacingRight=3;rotatable=0;labelPosition=right;points=[];portConstraint=eastwest;" parent="BjsAdJwaR5bysByXlGA6-16" vertex="1">
          <mxGeometry y="34" width="200" height="8" as="geometry" />
        </mxCell>
        <mxCell id="BjsAdJwaR5bysByXlGA6-20" value="text=&quot;La station devra mesurer les données météorologiques et les transmettres.&quot;" style="html=1;align=left;spacing=0;verticalAlign=middle;strokeColor=none;fillColor=none;whiteSpace=wrap;spacingLeft=10;" parent="BjsAdJwaR5bysByXlGA6-16" vertex="1">
          <mxGeometry y="42" width="200" height="48" as="geometry" />
        </mxCell>
        <mxCell id="BjsAdJwaR5bysByXlGA6-138" value="Id=&quot;1.3&quot;" style="html=1;align=left;spacing=0;verticalAlign=middle;strokeColor=none;fillColor=none;whiteSpace=wrap;spacingLeft=10;" parent="BjsAdJwaR5bysByXlGA6-16" vertex="1">
          <mxGeometry y="90" width="200" height="16" as="geometry" />
        </mxCell>
        <mxCell id="BjsAdJwaR5bysByXlGA6-22" value="" style="html=1;align=center;spacing=0;verticalAlign=middle;strokeColor=none;fillColor=none;whiteSpace=wrap;" parent="BjsAdJwaR5bysByXlGA6-16" vertex="1">
          <mxGeometry y="106" width="200" height="26" as="geometry" />
        </mxCell>
        <mxCell id="BjsAdJwaR5bysByXlGA6-23" value="" style="fontStyle=1;align=center;verticalAlign=middle;childLayout=stackLayout;horizontal=1;horizontalStack=0;resizeParent=1;resizeParentMax=0;resizeLast=0;marginBottom=0;" parent="1" vertex="1">
          <mxGeometry x="2440" y="300" width="200" height="152" as="geometry" />
        </mxCell>
        <mxCell id="BjsAdJwaR5bysByXlGA6-24" value="&amp;lt;&amp;lt;requirement&amp;gt;&amp;gt;" style="html=1;align=center;spacing=0;verticalAlign=middle;strokeColor=none;fillColor=none;whiteSpace=wrap;spacingTop=3;" parent="BjsAdJwaR5bysByXlGA6-23" vertex="1">
          <mxGeometry width="200" height="16" as="geometry" />
        </mxCell>
        <mxCell id="BjsAdJwaR5bysByXlGA6-25" value="Base de données" style="html=1;align=center;spacing=0;verticalAlign=middle;strokeColor=none;fillColor=none;whiteSpace=wrap;fontStyle=1" parent="BjsAdJwaR5bysByXlGA6-23" vertex="1">
          <mxGeometry y="16" width="200" height="18" as="geometry" />
        </mxCell>
        <mxCell id="BjsAdJwaR5bysByXlGA6-26" value="" style="line;strokeWidth=0.25;fillColor=none;align=left;verticalAlign=middle;spacingTop=-1;spacingLeft=3;spacingRight=3;rotatable=0;labelPosition=right;points=[];portConstraint=eastwest;" parent="BjsAdJwaR5bysByXlGA6-23" vertex="1">
          <mxGeometry y="34" width="200" height="8" as="geometry" />
        </mxCell>
        <mxCell id="BjsAdJwaR5bysByXlGA6-27" value="text=&quot;La base de données devra permettre le stockage ainsi qu&#39;un accès aux données acquises.&quot;" style="html=1;align=left;spacing=0;verticalAlign=middle;strokeColor=none;fillColor=none;whiteSpace=wrap;spacingLeft=10;" parent="BjsAdJwaR5bysByXlGA6-23" vertex="1">
          <mxGeometry y="42" width="200" height="68" as="geometry" />
        </mxCell>
        <mxCell id="BjsAdJwaR5bysByXlGA6-28" value="Id=&quot;1.4&quot;" style="html=1;align=left;spacing=0;verticalAlign=middle;strokeColor=none;fillColor=none;whiteSpace=wrap;spacingLeft=10;" parent="BjsAdJwaR5bysByXlGA6-23" vertex="1">
          <mxGeometry y="110" width="200" height="16" as="geometry" />
        </mxCell>
        <mxCell id="BjsAdJwaR5bysByXlGA6-29" value="" style="html=1;align=center;spacing=0;verticalAlign=middle;strokeColor=none;fillColor=none;whiteSpace=wrap;" parent="BjsAdJwaR5bysByXlGA6-23" vertex="1">
          <mxGeometry y="126" width="200" height="26" as="geometry" />
        </mxCell>
        <mxCell id="BjsAdJwaR5bysByXlGA6-37" value="" style="fontStyle=1;align=center;verticalAlign=middle;childLayout=stackLayout;horizontal=1;horizontalStack=0;resizeParent=1;resizeParentMax=0;resizeLast=0;marginBottom=0;" parent="1" vertex="1">
          <mxGeometry x="1580" y="300" width="200" height="152" as="geometry" />
        </mxCell>
        <mxCell id="BjsAdJwaR5bysByXlGA6-38" value="&amp;lt;&amp;lt;requirement&amp;gt;&amp;gt;" style="html=1;align=center;spacing=0;verticalAlign=middle;strokeColor=none;fillColor=none;whiteSpace=wrap;spacingTop=3;" parent="BjsAdJwaR5bysByXlGA6-37" vertex="1">
          <mxGeometry width="200" height="16" as="geometry" />
        </mxCell>
        <mxCell id="BjsAdJwaR5bysByXlGA6-39" value="Capteurs Piste" style="html=1;align=center;spacing=0;verticalAlign=middle;strokeColor=none;fillColor=none;whiteSpace=wrap;fontStyle=1" parent="BjsAdJwaR5bysByXlGA6-37" vertex="1">
          <mxGeometry y="16" width="200" height="18" as="geometry" />
        </mxCell>
        <mxCell id="BjsAdJwaR5bysByXlGA6-40" value="" style="line;strokeWidth=0.25;fillColor=none;align=left;verticalAlign=middle;spacingTop=-1;spacingLeft=3;spacingRight=3;rotatable=0;labelPosition=right;points=[];portConstraint=eastwest;" parent="BjsAdJwaR5bysByXlGA6-37" vertex="1">
          <mxGeometry y="34" width="200" height="8" as="geometry" />
        </mxCell>
        <mxCell id="BjsAdJwaR5bysByXlGA6-41" value="text=&quot;Les capteurs de la piste devront mesurer l&#39;humidité ainsi que le température du sol et les transmettres.&quot;" style="html=1;align=left;spacing=0;verticalAlign=middle;strokeColor=none;fillColor=none;whiteSpace=wrap;spacingLeft=10;" parent="BjsAdJwaR5bysByXlGA6-37" vertex="1">
          <mxGeometry y="42" width="200" height="68" as="geometry" />
        </mxCell>
        <mxCell id="BjsAdJwaR5bysByXlGA6-42" value="Id=&quot;1.2&quot;" style="html=1;align=left;spacing=0;verticalAlign=middle;strokeColor=none;fillColor=none;whiteSpace=wrap;spacingLeft=10;" parent="BjsAdJwaR5bysByXlGA6-37" vertex="1">
          <mxGeometry y="110" width="200" height="16" as="geometry" />
        </mxCell>
        <mxCell id="BjsAdJwaR5bysByXlGA6-43" value="" style="html=1;align=center;spacing=0;verticalAlign=middle;strokeColor=none;fillColor=none;whiteSpace=wrap;" parent="BjsAdJwaR5bysByXlGA6-37" vertex="1">
          <mxGeometry y="126" width="200" height="26" as="geometry" />
        </mxCell>
        <mxCell id="BjsAdJwaR5bysByXlGA6-103" value="" style="fontStyle=1;align=center;verticalAlign=middle;childLayout=stackLayout;horizontal=1;horizontalStack=0;resizeParent=1;resizeParentMax=0;resizeLast=0;marginBottom=0;" parent="1" vertex="1">
          <mxGeometry x="1210" y="489" width="200" height="142" as="geometry" />
        </mxCell>
        <mxCell id="BjsAdJwaR5bysByXlGA6-104" value="&amp;lt;&amp;lt;requirement&amp;gt;&amp;gt;" style="html=1;align=center;spacing=0;verticalAlign=middle;strokeColor=none;fillColor=none;whiteSpace=wrap;spacingTop=3;" parent="BjsAdJwaR5bysByXlGA6-103" vertex="1">
          <mxGeometry width="200" height="16" as="geometry" />
        </mxCell>
        <mxCell id="BjsAdJwaR5bysByXlGA6-105" value="Transmettre les données" style="html=1;align=center;spacing=0;verticalAlign=middle;strokeColor=none;fillColor=none;whiteSpace=wrap;fontStyle=1" parent="BjsAdJwaR5bysByXlGA6-103" vertex="1">
          <mxGeometry y="16" width="200" height="18" as="geometry" />
        </mxCell>
        <mxCell id="BjsAdJwaR5bysByXlGA6-106" value="" style="line;strokeWidth=0.25;fillColor=none;align=left;verticalAlign=middle;spacingTop=-1;spacingLeft=3;spacingRight=3;rotatable=0;labelPosition=right;points=[];portConstraint=eastwest;" parent="BjsAdJwaR5bysByXlGA6-103" vertex="1">
          <mxGeometry y="34" width="200" height="8" as="geometry" />
        </mxCell>
        <mxCell id="BjsAdJwaR5bysByXlGA6-107" value="text=&quot;Le robot devra transmettre les données collectées à la fin des mesures et sous la forme d&#39;un seul fichier.&quot;" style="html=1;align=left;spacing=0;verticalAlign=middle;strokeColor=none;fillColor=none;whiteSpace=wrap;spacingLeft=10;" parent="BjsAdJwaR5bysByXlGA6-103" vertex="1">
          <mxGeometry y="42" width="200" height="58" as="geometry" />
        </mxCell>
        <mxCell id="BjsAdJwaR5bysByXlGA6-108" value="Id=&quot;1.2.2&quot;" style="html=1;align=left;spacing=0;verticalAlign=middle;strokeColor=none;fillColor=none;whiteSpace=wrap;spacingLeft=10;" parent="BjsAdJwaR5bysByXlGA6-103" vertex="1">
          <mxGeometry y="100" width="200" height="16" as="geometry" />
        </mxCell>
        <mxCell id="BjsAdJwaR5bysByXlGA6-109" value="" style="html=1;align=center;spacing=0;verticalAlign=middle;strokeColor=none;fillColor=none;whiteSpace=wrap;" parent="BjsAdJwaR5bysByXlGA6-103" vertex="1">
          <mxGeometry y="116" width="200" height="26" as="geometry" />
        </mxCell>
        <mxCell id="BjsAdJwaR5bysByXlGA6-120" value="" style="rounded=0;html=1;labelBackgroundColor=none;endArrow=none;edgeStyle=elbowEdgeStyle;elbow=vertical;startArrow=sysMLPackCont;startSize=12;exitX=0.5;exitY=1;exitDx=0;exitDy=0;entryX=0.5;entryY=0;entryDx=0;entryDy=0;" parent="1" edge="1" target="dOWmHlfBPdGyiv2R1hLI-16" source="dOWmHlfBPdGyiv2R1hLI-7">
          <mxGeometry relative="1" as="geometry">
            <mxPoint x="775" y="590" as="sourcePoint" />
            <mxPoint x="775" y="630" as="targetPoint" />
            <Array as="points">
              <mxPoint x="830" y="660" />
            </Array>
          </mxGeometry>
        </mxCell>
        <mxCell id="BjsAdJwaR5bysByXlGA6-121" value="" style="rounded=0;html=1;labelBackgroundColor=none;endArrow=none;edgeStyle=elbowEdgeStyle;elbow=vertical;startArrow=sysMLPackCont;startSize=12;exitX=0.5;exitY=1;exitDx=0;exitDy=0;entryX=0.5;entryY=0;entryDx=0;entryDy=0;" parent="1" source="DIkkWQ_dd3_0cyvRfukZ-7" target="BjsAdJwaR5bysByXlGA6-104" edge="1">
          <mxGeometry relative="1" as="geometry">
            <mxPoint x="1000" y="650" as="sourcePoint" />
            <mxPoint x="1090" y="710.0000000000002" as="targetPoint" />
          </mxGeometry>
        </mxCell>
        <mxCell id="BjsAdJwaR5bysByXlGA6-127" value="" style="rounded=0;html=1;labelBackgroundColor=none;endArrow=none;edgeStyle=elbowEdgeStyle;elbow=vertical;startArrow=sysMLPackCont;startSize=12;exitX=0.5;exitY=1;exitDx=0;exitDy=0;entryX=0.5;entryY=0;entryDx=0;entryDy=0;" parent="1" edge="1" target="dOWmHlfBPdGyiv2R1hLI-38" source="dOWmHlfBPdGyiv2R1hLI-36">
          <mxGeometry relative="1" as="geometry">
            <mxPoint x="560" y="962" as="sourcePoint" />
            <mxPoint x="560" y="1000" as="targetPoint" />
          </mxGeometry>
        </mxCell>
        <mxCell id="BjsAdJwaR5bysByXlGA6-139" value="" style="fontStyle=1;align=center;verticalAlign=middle;childLayout=stackLayout;horizontal=1;horizontalStack=0;resizeParent=1;resizeParentMax=0;resizeLast=0;marginBottom=0;" parent="1" vertex="1">
          <mxGeometry x="1470" y="489" width="200" height="142" as="geometry" />
        </mxCell>
        <mxCell id="BjsAdJwaR5bysByXlGA6-140" value="&amp;lt;&amp;lt;requirement&amp;gt;&amp;gt;" style="html=1;align=center;spacing=0;verticalAlign=middle;strokeColor=none;fillColor=none;whiteSpace=wrap;spacingTop=3;" parent="BjsAdJwaR5bysByXlGA6-139" vertex="1">
          <mxGeometry width="200" height="16" as="geometry" />
        </mxCell>
        <mxCell id="BjsAdJwaR5bysByXlGA6-141" value="Collecter les données" style="html=1;align=center;spacing=0;verticalAlign=middle;strokeColor=none;fillColor=none;whiteSpace=wrap;fontStyle=1" parent="BjsAdJwaR5bysByXlGA6-139" vertex="1">
          <mxGeometry y="16" width="200" height="18" as="geometry" />
        </mxCell>
        <mxCell id="BjsAdJwaR5bysByXlGA6-142" value="" style="line;strokeWidth=0.25;fillColor=none;align=left;verticalAlign=middle;spacingTop=-1;spacingLeft=3;spacingRight=3;rotatable=0;labelPosition=right;points=[];portConstraint=eastwest;" parent="BjsAdJwaR5bysByXlGA6-139" vertex="1">
          <mxGeometry y="34" width="200" height="8" as="geometry" />
        </mxCell>
        <mxCell id="BjsAdJwaR5bysByXlGA6-143" value="text=&quot;Les capteurs devront mesurer l&#39;humidité du sol ainsi que la température de la piste&quot;" style="html=1;align=left;spacing=0;verticalAlign=middle;strokeColor=none;fillColor=none;whiteSpace=wrap;spacingLeft=10;" parent="BjsAdJwaR5bysByXlGA6-139" vertex="1">
          <mxGeometry y="42" width="200" height="58" as="geometry" />
        </mxCell>
        <mxCell id="BjsAdJwaR5bysByXlGA6-144" value="Id=&quot;1.2.1&quot;" style="html=1;align=left;spacing=0;verticalAlign=middle;strokeColor=none;fillColor=none;whiteSpace=wrap;spacingLeft=10;" parent="BjsAdJwaR5bysByXlGA6-139" vertex="1">
          <mxGeometry y="100" width="200" height="16" as="geometry" />
        </mxCell>
        <mxCell id="BjsAdJwaR5bysByXlGA6-145" value="" style="html=1;align=center;spacing=0;verticalAlign=middle;strokeColor=none;fillColor=none;whiteSpace=wrap;" parent="BjsAdJwaR5bysByXlGA6-139" vertex="1">
          <mxGeometry y="116" width="200" height="26" as="geometry" />
        </mxCell>
        <mxCell id="BjsAdJwaR5bysByXlGA6-146" value="" style="fontStyle=1;align=center;verticalAlign=middle;childLayout=stackLayout;horizontal=1;horizontalStack=0;resizeParent=1;resizeParentMax=0;resizeLast=0;marginBottom=0;" parent="1" vertex="1">
          <mxGeometry x="1690" y="489" width="200" height="132" as="geometry" />
        </mxCell>
        <mxCell id="BjsAdJwaR5bysByXlGA6-147" value="&amp;lt;&amp;lt;requirement&amp;gt;&amp;gt;" style="html=1;align=center;spacing=0;verticalAlign=middle;strokeColor=none;fillColor=none;whiteSpace=wrap;spacingTop=3;" parent="BjsAdJwaR5bysByXlGA6-146" vertex="1">
          <mxGeometry width="200" height="16" as="geometry" />
        </mxCell>
        <mxCell id="BjsAdJwaR5bysByXlGA6-148" value="Transmettre les données" style="html=1;align=center;spacing=0;verticalAlign=middle;strokeColor=none;fillColor=none;whiteSpace=wrap;fontStyle=1" parent="BjsAdJwaR5bysByXlGA6-146" vertex="1">
          <mxGeometry y="16" width="200" height="18" as="geometry" />
        </mxCell>
        <mxCell id="BjsAdJwaR5bysByXlGA6-149" value="" style="line;strokeWidth=0.25;fillColor=none;align=left;verticalAlign=middle;spacingTop=-1;spacingLeft=3;spacingRight=3;rotatable=0;labelPosition=right;points=[];portConstraint=eastwest;" parent="BjsAdJwaR5bysByXlGA6-146" vertex="1">
          <mxGeometry y="34" width="200" height="8" as="geometry" />
        </mxCell>
        <mxCell id="BjsAdJwaR5bysByXlGA6-150" value="text=&quot;Chaque capteur enverra ses données vers la base de données sous la forme d&#39;un fichier&quot;" style="html=1;align=left;spacing=0;verticalAlign=middle;strokeColor=none;fillColor=none;whiteSpace=wrap;spacingLeft=10;" parent="BjsAdJwaR5bysByXlGA6-146" vertex="1">
          <mxGeometry y="42" width="200" height="48" as="geometry" />
        </mxCell>
        <mxCell id="BjsAdJwaR5bysByXlGA6-151" value="Id=&quot;1.2.2&quot;" style="html=1;align=left;spacing=0;verticalAlign=middle;strokeColor=none;fillColor=none;whiteSpace=wrap;spacingLeft=10;" parent="BjsAdJwaR5bysByXlGA6-146" vertex="1">
          <mxGeometry y="90" width="200" height="16" as="geometry" />
        </mxCell>
        <mxCell id="BjsAdJwaR5bysByXlGA6-152" value="" style="html=1;align=center;spacing=0;verticalAlign=middle;strokeColor=none;fillColor=none;whiteSpace=wrap;" parent="BjsAdJwaR5bysByXlGA6-146" vertex="1">
          <mxGeometry y="106" width="200" height="26" as="geometry" />
        </mxCell>
        <mxCell id="BjsAdJwaR5bysByXlGA6-160" value="" style="fontStyle=1;align=center;verticalAlign=middle;childLayout=stackLayout;horizontal=1;horizontalStack=0;resizeParent=1;resizeParentMax=0;resizeLast=0;marginBottom=0;" parent="1" vertex="1">
          <mxGeometry x="1900" y="489" width="200" height="162" as="geometry" />
        </mxCell>
        <mxCell id="BjsAdJwaR5bysByXlGA6-161" value="&amp;lt;&amp;lt;requirement&amp;gt;&amp;gt;" style="html=1;align=center;spacing=0;verticalAlign=middle;strokeColor=none;fillColor=none;whiteSpace=wrap;spacingTop=3;" parent="BjsAdJwaR5bysByXlGA6-160" vertex="1">
          <mxGeometry width="200" height="16" as="geometry" />
        </mxCell>
        <mxCell id="BjsAdJwaR5bysByXlGA6-162" value="Collecter les données" style="html=1;align=center;spacing=0;verticalAlign=middle;strokeColor=none;fillColor=none;whiteSpace=wrap;fontStyle=1" parent="BjsAdJwaR5bysByXlGA6-160" vertex="1">
          <mxGeometry y="16" width="200" height="18" as="geometry" />
        </mxCell>
        <mxCell id="BjsAdJwaR5bysByXlGA6-163" value="" style="line;strokeWidth=0.25;fillColor=none;align=left;verticalAlign=middle;spacingTop=-1;spacingLeft=3;spacingRight=3;rotatable=0;labelPosition=right;points=[];portConstraint=eastwest;" parent="BjsAdJwaR5bysByXlGA6-160" vertex="1">
          <mxGeometry y="34" width="200" height="8" as="geometry" />
        </mxCell>
        <mxCell id="BjsAdJwaR5bysByXlGA6-164" value="text=&quot;La station météorologique devra mesurer l&#39;hygrométrie, la pluviométrie, la température extérieure, la direction du vent, la vitesse du vent et l&#39;ensoleillement&quot;" style="html=1;align=left;spacing=0;verticalAlign=middle;strokeColor=none;fillColor=none;whiteSpace=wrap;spacingLeft=10;" parent="BjsAdJwaR5bysByXlGA6-160" vertex="1">
          <mxGeometry y="42" width="200" height="78" as="geometry" />
        </mxCell>
        <mxCell id="BjsAdJwaR5bysByXlGA6-165" value="Id=&quot;1.3.1&quot;" style="html=1;align=left;spacing=0;verticalAlign=middle;strokeColor=none;fillColor=none;whiteSpace=wrap;spacingLeft=10;" parent="BjsAdJwaR5bysByXlGA6-160" vertex="1">
          <mxGeometry y="120" width="200" height="16" as="geometry" />
        </mxCell>
        <mxCell id="BjsAdJwaR5bysByXlGA6-166" value="" style="html=1;align=center;spacing=0;verticalAlign=middle;strokeColor=none;fillColor=none;whiteSpace=wrap;" parent="BjsAdJwaR5bysByXlGA6-160" vertex="1">
          <mxGeometry y="136" width="200" height="26" as="geometry" />
        </mxCell>
        <mxCell id="BjsAdJwaR5bysByXlGA6-181" value="" style="fontStyle=1;align=center;verticalAlign=middle;childLayout=stackLayout;horizontal=1;horizontalStack=0;resizeParent=1;resizeParentMax=0;resizeLast=0;marginBottom=0;" parent="1" vertex="1">
          <mxGeometry x="2120" y="489" width="200" height="132" as="geometry" />
        </mxCell>
        <mxCell id="BjsAdJwaR5bysByXlGA6-182" value="&amp;lt;&amp;lt;requirement&amp;gt;&amp;gt;" style="html=1;align=center;spacing=0;verticalAlign=middle;strokeColor=none;fillColor=none;whiteSpace=wrap;spacingTop=3;" parent="BjsAdJwaR5bysByXlGA6-181" vertex="1">
          <mxGeometry width="200" height="16" as="geometry" />
        </mxCell>
        <mxCell id="BjsAdJwaR5bysByXlGA6-183" value="Transmettre les données" style="html=1;align=center;spacing=0;verticalAlign=middle;strokeColor=none;fillColor=none;whiteSpace=wrap;fontStyle=1" parent="BjsAdJwaR5bysByXlGA6-181" vertex="1">
          <mxGeometry y="16" width="200" height="18" as="geometry" />
        </mxCell>
        <mxCell id="BjsAdJwaR5bysByXlGA6-184" value="" style="line;strokeWidth=0.25;fillColor=none;align=left;verticalAlign=middle;spacingTop=-1;spacingLeft=3;spacingRight=3;rotatable=0;labelPosition=right;points=[];portConstraint=eastwest;" parent="BjsAdJwaR5bysByXlGA6-181" vertex="1">
          <mxGeometry y="34" width="200" height="8" as="geometry" />
        </mxCell>
        <mxCell id="BjsAdJwaR5bysByXlGA6-185" value="text=&quot;Chaque capteur enverra ses données vers la base de données sous la forme d&#39;un fichier&quot;" style="html=1;align=left;spacing=0;verticalAlign=middle;strokeColor=none;fillColor=none;whiteSpace=wrap;spacingLeft=10;" parent="BjsAdJwaR5bysByXlGA6-181" vertex="1">
          <mxGeometry y="42" width="200" height="48" as="geometry" />
        </mxCell>
        <mxCell id="BjsAdJwaR5bysByXlGA6-186" value="Id=&quot;1.3&lt;span style=&quot;background-color: transparent; color: light-dark(rgb(0, 0, 0), rgb(255, 255, 255));&quot;&gt;.2&quot;&lt;/span&gt;" style="html=1;align=left;spacing=0;verticalAlign=middle;strokeColor=none;fillColor=none;whiteSpace=wrap;spacingLeft=10;" parent="BjsAdJwaR5bysByXlGA6-181" vertex="1">
          <mxGeometry y="90" width="200" height="16" as="geometry" />
        </mxCell>
        <mxCell id="BjsAdJwaR5bysByXlGA6-187" value="" style="html=1;align=center;spacing=0;verticalAlign=middle;strokeColor=none;fillColor=none;whiteSpace=wrap;" parent="BjsAdJwaR5bysByXlGA6-181" vertex="1">
          <mxGeometry y="106" width="200" height="26" as="geometry" />
        </mxCell>
        <mxCell id="BjsAdJwaR5bysByXlGA6-208" value="" style="rounded=0;html=1;labelBackgroundColor=none;endArrow=none;edgeStyle=elbowEdgeStyle;elbow=vertical;startArrow=sysMLPackCont;startSize=12;exitX=0.5;exitY=1;exitDx=0;exitDy=0;entryX=0.5;entryY=0;entryDx=0;entryDy=0;" parent="1" source="BjsAdJwaR5bysByXlGA6-43" target="BjsAdJwaR5bysByXlGA6-147" edge="1">
          <mxGeometry relative="1" as="geometry">
            <mxPoint x="1990" y="360" as="sourcePoint" />
            <mxPoint x="1900" y="420.0000000000002" as="targetPoint" />
          </mxGeometry>
        </mxCell>
        <mxCell id="BjsAdJwaR5bysByXlGA6-209" value="" style="rounded=0;html=1;labelBackgroundColor=none;endArrow=none;edgeStyle=elbowEdgeStyle;elbow=vertical;startArrow=sysMLPackCont;startSize=12;exitX=0.5;exitY=1;exitDx=0;exitDy=0;entryX=0.5;entryY=0;entryDx=0;entryDy=0;" parent="1" source="BjsAdJwaR5bysByXlGA6-22" target="BjsAdJwaR5bysByXlGA6-161" edge="1">
          <mxGeometry relative="1" as="geometry">
            <mxPoint x="1910" y="420" as="sourcePoint" />
            <mxPoint x="2000" y="480.0000000000002" as="targetPoint" />
          </mxGeometry>
        </mxCell>
        <mxCell id="BjsAdJwaR5bysByXlGA6-210" value="" style="rounded=0;html=1;labelBackgroundColor=none;endArrow=none;edgeStyle=elbowEdgeStyle;elbow=vertical;startArrow=sysMLPackCont;startSize=12;exitX=0.5;exitY=1;exitDx=0;exitDy=0;entryX=0.5;entryY=0;entryDx=0;entryDy=0;" parent="1" source="BjsAdJwaR5bysByXlGA6-43" target="BjsAdJwaR5bysByXlGA6-140" edge="1">
          <mxGeometry relative="1" as="geometry">
            <mxPoint x="2000" y="370" as="sourcePoint" />
            <mxPoint x="1910" y="430.0000000000002" as="targetPoint" />
          </mxGeometry>
        </mxCell>
        <mxCell id="BjsAdJwaR5bysByXlGA6-213" value="" style="rounded=0;html=1;labelBackgroundColor=none;endArrow=none;edgeStyle=elbowEdgeStyle;elbow=vertical;startArrow=sysMLPackCont;startSize=12;exitX=0.5;exitY=1;exitDx=0;exitDy=0;entryX=0.5;entryY=0;entryDx=0;entryDy=0;" parent="1" source="BjsAdJwaR5bysByXlGA6-22" target="BjsAdJwaR5bysByXlGA6-182" edge="1">
          <mxGeometry relative="1" as="geometry">
            <mxPoint x="1890" y="400" as="sourcePoint" />
            <mxPoint x="1800" y="460.0000000000002" as="targetPoint" />
          </mxGeometry>
        </mxCell>
        <mxCell id="Zmh-kfV3eTwTil-K40oj-1" value="" style="fontStyle=1;align=center;verticalAlign=middle;childLayout=stackLayout;horizontal=1;horizontalStack=0;resizeParent=1;resizeParentMax=0;resizeLast=0;marginBottom=0;" parent="1" vertex="1">
          <mxGeometry x="2330" y="489" width="200" height="142" as="geometry" />
        </mxCell>
        <mxCell id="Zmh-kfV3eTwTil-K40oj-2" value="&amp;lt;&amp;lt;requirement&amp;gt;&amp;gt;" style="html=1;align=center;spacing=0;verticalAlign=middle;strokeColor=none;fillColor=none;whiteSpace=wrap;spacingTop=3;" parent="Zmh-kfV3eTwTil-K40oj-1" vertex="1">
          <mxGeometry width="200" height="16" as="geometry" />
        </mxCell>
        <mxCell id="Zmh-kfV3eTwTil-K40oj-3" value="Stockage des données" style="html=1;align=center;spacing=0;verticalAlign=middle;strokeColor=none;fillColor=none;whiteSpace=wrap;fontStyle=1" parent="Zmh-kfV3eTwTil-K40oj-1" vertex="1">
          <mxGeometry y="16" width="200" height="18" as="geometry" />
        </mxCell>
        <mxCell id="Zmh-kfV3eTwTil-K40oj-4" value="" style="line;strokeWidth=0.25;fillColor=none;align=left;verticalAlign=middle;spacingTop=-1;spacingLeft=3;spacingRight=3;rotatable=0;labelPosition=right;points=[];portConstraint=eastwest;" parent="Zmh-kfV3eTwTil-K40oj-1" vertex="1">
          <mxGeometry y="34" width="200" height="8" as="geometry" />
        </mxCell>
        <mxCell id="Zmh-kfV3eTwTil-K40oj-5" value="text=&quot;La base de donnée devra conserver les données météorologique et les données du terrain&quot;" style="html=1;align=left;spacing=0;verticalAlign=middle;strokeColor=none;fillColor=none;whiteSpace=wrap;spacingLeft=10;" parent="Zmh-kfV3eTwTil-K40oj-1" vertex="1">
          <mxGeometry y="42" width="200" height="58" as="geometry" />
        </mxCell>
        <mxCell id="Zmh-kfV3eTwTil-K40oj-6" value="Id=&quot;1.4.1&quot;" style="html=1;align=left;spacing=0;verticalAlign=middle;strokeColor=none;fillColor=none;whiteSpace=wrap;spacingLeft=10;" parent="Zmh-kfV3eTwTil-K40oj-1" vertex="1">
          <mxGeometry y="100" width="200" height="16" as="geometry" />
        </mxCell>
        <mxCell id="Zmh-kfV3eTwTil-K40oj-7" value="" style="html=1;align=center;spacing=0;verticalAlign=middle;strokeColor=none;fillColor=none;whiteSpace=wrap;" parent="Zmh-kfV3eTwTil-K40oj-1" vertex="1">
          <mxGeometry y="116" width="200" height="26" as="geometry" />
        </mxCell>
        <mxCell id="Zmh-kfV3eTwTil-K40oj-8" value="" style="fontStyle=1;align=center;verticalAlign=middle;childLayout=stackLayout;horizontal=1;horizontalStack=0;resizeParent=1;resizeParentMax=0;resizeLast=0;marginBottom=0;" parent="1" vertex="1">
          <mxGeometry x="2550" y="489" width="200" height="132" as="geometry" />
        </mxCell>
        <mxCell id="Zmh-kfV3eTwTil-K40oj-9" value="&amp;lt;&amp;lt;requirement&amp;gt;&amp;gt;" style="html=1;align=center;spacing=0;verticalAlign=middle;strokeColor=none;fillColor=none;whiteSpace=wrap;spacingTop=3;" parent="Zmh-kfV3eTwTil-K40oj-8" vertex="1">
          <mxGeometry width="200" height="16" as="geometry" />
        </mxCell>
        <mxCell id="Zmh-kfV3eTwTil-K40oj-10" value="Accès aux données" style="html=1;align=center;spacing=0;verticalAlign=middle;strokeColor=none;fillColor=none;whiteSpace=wrap;fontStyle=1" parent="Zmh-kfV3eTwTil-K40oj-8" vertex="1">
          <mxGeometry y="16" width="200" height="18" as="geometry" />
        </mxCell>
        <mxCell id="Zmh-kfV3eTwTil-K40oj-11" value="" style="line;strokeWidth=0.25;fillColor=none;align=left;verticalAlign=middle;spacingTop=-1;spacingLeft=3;spacingRight=3;rotatable=0;labelPosition=right;points=[];portConstraint=eastwest;" parent="Zmh-kfV3eTwTil-K40oj-8" vertex="1">
          <mxGeometry y="34" width="200" height="8" as="geometry" />
        </mxCell>
        <mxCell id="Zmh-kfV3eTwTil-K40oj-30" style="edgeStyle=orthogonalEdgeStyle;rounded=0;orthogonalLoop=1;jettySize=auto;html=1;exitX=0.75;exitY=1;exitDx=0;exitDy=0;entryX=0.75;entryY=0;entryDx=0;entryDy=0;" parent="Zmh-kfV3eTwTil-K40oj-8" source="Zmh-kfV3eTwTil-K40oj-12" target="Zmh-kfV3eTwTil-K40oj-13" edge="1">
          <mxGeometry relative="1" as="geometry" />
        </mxCell>
        <mxCell id="Zmh-kfV3eTwTil-K40oj-12" value="text=&quot;La base de données permettra un accès aux données.&quot;" style="html=1;align=left;spacing=0;verticalAlign=middle;strokeColor=none;fillColor=none;whiteSpace=wrap;spacingLeft=10;" parent="Zmh-kfV3eTwTil-K40oj-8" vertex="1">
          <mxGeometry y="42" width="200" height="48" as="geometry" />
        </mxCell>
        <mxCell id="Zmh-kfV3eTwTil-K40oj-13" value="Id=&quot;1.4.2&quot;" style="html=1;align=left;spacing=0;verticalAlign=middle;strokeColor=none;fillColor=none;whiteSpace=wrap;spacingLeft=10;" parent="Zmh-kfV3eTwTil-K40oj-8" vertex="1">
          <mxGeometry y="90" width="200" height="16" as="geometry" />
        </mxCell>
        <mxCell id="Zmh-kfV3eTwTil-K40oj-14" value="" style="html=1;align=center;spacing=0;verticalAlign=middle;strokeColor=none;fillColor=none;whiteSpace=wrap;" parent="Zmh-kfV3eTwTil-K40oj-8" vertex="1">
          <mxGeometry y="106" width="200" height="26" as="geometry" />
        </mxCell>
        <mxCell id="Zmh-kfV3eTwTil-K40oj-15" value="" style="fontStyle=1;align=center;verticalAlign=middle;childLayout=stackLayout;horizontal=1;horizontalStack=0;resizeParent=1;resizeParentMax=0;resizeLast=0;marginBottom=0;" parent="1" vertex="1">
          <mxGeometry x="2330" y="650" width="200" height="172" as="geometry" />
        </mxCell>
        <mxCell id="Zmh-kfV3eTwTil-K40oj-16" value="&amp;lt;&amp;lt;requirement&amp;gt;&amp;gt;" style="html=1;align=center;spacing=0;verticalAlign=middle;strokeColor=none;fillColor=none;whiteSpace=wrap;spacingTop=3;" parent="Zmh-kfV3eTwTil-K40oj-15" vertex="1">
          <mxGeometry width="200" height="16" as="geometry" />
        </mxCell>
        <mxCell id="Zmh-kfV3eTwTil-K40oj-17" value="Suppression des données" style="html=1;align=center;spacing=0;verticalAlign=middle;strokeColor=none;fillColor=none;whiteSpace=wrap;fontStyle=1" parent="Zmh-kfV3eTwTil-K40oj-15" vertex="1">
          <mxGeometry y="16" width="200" height="18" as="geometry" />
        </mxCell>
        <mxCell id="Zmh-kfV3eTwTil-K40oj-18" value="" style="line;strokeWidth=0.25;fillColor=none;align=left;verticalAlign=middle;spacingTop=-1;spacingLeft=3;spacingRight=3;rotatable=0;labelPosition=right;points=[];portConstraint=eastwest;" parent="Zmh-kfV3eTwTil-K40oj-15" vertex="1">
          <mxGeometry y="34" width="200" height="8" as="geometry" />
        </mxCell>
        <mxCell id="Zmh-kfV3eTwTil-K40oj-19" value="text=&quot;La base de données devra supprimer sans intervention humaine toutes les données devenues inutiles (ayant + de 3mois).&quot;" style="html=1;align=left;spacing=0;verticalAlign=middle;strokeColor=none;fillColor=none;whiteSpace=wrap;spacingLeft=10;" parent="Zmh-kfV3eTwTil-K40oj-15" vertex="1">
          <mxGeometry y="42" width="200" height="88" as="geometry" />
        </mxCell>
        <mxCell id="Zmh-kfV3eTwTil-K40oj-20" value="Id=&quot;1.4.1.1&quot;" style="html=1;align=left;spacing=0;verticalAlign=middle;strokeColor=none;fillColor=none;whiteSpace=wrap;spacingLeft=10;" parent="Zmh-kfV3eTwTil-K40oj-15" vertex="1">
          <mxGeometry y="130" width="200" height="16" as="geometry" />
        </mxCell>
        <mxCell id="Zmh-kfV3eTwTil-K40oj-21" value="" style="html=1;align=center;spacing=0;verticalAlign=middle;strokeColor=none;fillColor=none;whiteSpace=wrap;" parent="Zmh-kfV3eTwTil-K40oj-15" vertex="1">
          <mxGeometry y="146" width="200" height="26" as="geometry" />
        </mxCell>
        <mxCell id="Zmh-kfV3eTwTil-K40oj-31" value="" style="fontStyle=1;align=center;verticalAlign=middle;childLayout=stackLayout;horizontal=1;horizontalStack=0;resizeParent=1;resizeParentMax=0;resizeLast=0;marginBottom=0;" parent="1" vertex="1">
          <mxGeometry x="2760" y="300" width="200" height="162" as="geometry" />
        </mxCell>
        <mxCell id="Zmh-kfV3eTwTil-K40oj-32" value="&amp;lt;&amp;lt;requirement&amp;gt;&amp;gt;" style="html=1;align=center;spacing=0;verticalAlign=middle;strokeColor=none;fillColor=none;whiteSpace=wrap;spacingTop=3;" parent="Zmh-kfV3eTwTil-K40oj-31" vertex="1">
          <mxGeometry width="200" height="16" as="geometry" />
        </mxCell>
        <mxCell id="Zmh-kfV3eTwTil-K40oj-33" value="IHM" style="html=1;align=center;spacing=0;verticalAlign=middle;strokeColor=none;fillColor=none;whiteSpace=wrap;fontStyle=1" parent="Zmh-kfV3eTwTil-K40oj-31" vertex="1">
          <mxGeometry y="16" width="200" height="18" as="geometry" />
        </mxCell>
        <mxCell id="Zmh-kfV3eTwTil-K40oj-34" value="" style="line;strokeWidth=0.25;fillColor=none;align=left;verticalAlign=middle;spacingTop=-1;spacingLeft=3;spacingRight=3;rotatable=0;labelPosition=right;points=[];portConstraint=eastwest;" parent="Zmh-kfV3eTwTil-K40oj-31" vertex="1">
          <mxGeometry y="34" width="200" height="8" as="geometry" />
        </mxCell>
        <mxCell id="Zmh-kfV3eTwTil-K40oj-35" value="text=&quot;L&#39;IHM sera une application windows permettant aux utilisateurs de visualiser les données pertinentes.&quot;" style="html=1;align=left;spacing=0;verticalAlign=middle;strokeColor=none;fillColor=none;whiteSpace=wrap;spacingLeft=10;" parent="Zmh-kfV3eTwTil-K40oj-31" vertex="1">
          <mxGeometry y="42" width="200" height="78" as="geometry" />
        </mxCell>
        <mxCell id="Zmh-kfV3eTwTil-K40oj-36" value="Id=&quot;1.5&quot;" style="html=1;align=left;spacing=0;verticalAlign=middle;strokeColor=none;fillColor=none;whiteSpace=wrap;spacingLeft=10;" parent="Zmh-kfV3eTwTil-K40oj-31" vertex="1">
          <mxGeometry y="120" width="200" height="16" as="geometry" />
        </mxCell>
        <mxCell id="Zmh-kfV3eTwTil-K40oj-37" value="" style="html=1;align=center;spacing=0;verticalAlign=middle;strokeColor=none;fillColor=none;whiteSpace=wrap;" parent="Zmh-kfV3eTwTil-K40oj-31" vertex="1">
          <mxGeometry y="136" width="200" height="26" as="geometry" />
        </mxCell>
        <mxCell id="Zmh-kfV3eTwTil-K40oj-38" value="" style="fontStyle=1;align=center;verticalAlign=middle;childLayout=stackLayout;horizontal=1;horizontalStack=0;resizeParent=1;resizeParentMax=0;resizeLast=0;marginBottom=0;" parent="1" vertex="1">
          <mxGeometry x="2760" y="489" width="200" height="122" as="geometry" />
        </mxCell>
        <mxCell id="Zmh-kfV3eTwTil-K40oj-39" value="&amp;lt;&amp;lt;requirement&amp;gt;&amp;gt;" style="html=1;align=center;spacing=0;verticalAlign=middle;strokeColor=none;fillColor=none;whiteSpace=wrap;spacingTop=3;" parent="Zmh-kfV3eTwTil-K40oj-38" vertex="1">
          <mxGeometry width="200" height="16" as="geometry" />
        </mxCell>
        <mxCell id="Zmh-kfV3eTwTil-K40oj-40" value="Ergonomie" style="html=1;align=center;spacing=0;verticalAlign=middle;strokeColor=none;fillColor=none;whiteSpace=wrap;fontStyle=1" parent="Zmh-kfV3eTwTil-K40oj-38" vertex="1">
          <mxGeometry y="16" width="200" height="18" as="geometry" />
        </mxCell>
        <mxCell id="Zmh-kfV3eTwTil-K40oj-41" value="" style="line;strokeWidth=0.25;fillColor=none;align=left;verticalAlign=middle;spacingTop=-1;spacingLeft=3;spacingRight=3;rotatable=0;labelPosition=right;points=[];portConstraint=eastwest;" parent="Zmh-kfV3eTwTil-K40oj-38" vertex="1">
          <mxGeometry y="34" width="200" height="8" as="geometry" />
        </mxCell>
        <mxCell id="Zmh-kfV3eTwTil-K40oj-42" value="text=&quot;L&#39;IHM devra avoir une interface moderne et agréable.&quot;" style="html=1;align=left;spacing=0;verticalAlign=middle;strokeColor=none;fillColor=none;whiteSpace=wrap;spacingLeft=10;" parent="Zmh-kfV3eTwTil-K40oj-38" vertex="1">
          <mxGeometry y="42" width="200" height="38" as="geometry" />
        </mxCell>
        <mxCell id="Zmh-kfV3eTwTil-K40oj-43" value="Id=&quot;1.5.1&quot;" style="html=1;align=left;spacing=0;verticalAlign=middle;strokeColor=none;fillColor=none;whiteSpace=wrap;spacingLeft=10;" parent="Zmh-kfV3eTwTil-K40oj-38" vertex="1">
          <mxGeometry y="80" width="200" height="16" as="geometry" />
        </mxCell>
        <mxCell id="Zmh-kfV3eTwTil-K40oj-44" value="" style="html=1;align=center;spacing=0;verticalAlign=middle;strokeColor=none;fillColor=none;whiteSpace=wrap;" parent="Zmh-kfV3eTwTil-K40oj-38" vertex="1">
          <mxGeometry y="96" width="200" height="26" as="geometry" />
        </mxCell>
        <mxCell id="Zmh-kfV3eTwTil-K40oj-53" value="" style="rounded=0;html=1;labelBackgroundColor=none;endArrow=none;edgeStyle=elbowEdgeStyle;elbow=vertical;startArrow=sysMLPackCont;startSize=12;exitX=0.5;exitY=1;exitDx=0;exitDy=0;entryX=0.5;entryY=0;entryDx=0;entryDy=0;" parent="1" source="BjsAdJwaR5bysByXlGA6-8" target="BjsAdJwaR5bysByXlGA6-17" edge="1">
          <mxGeometry relative="1" as="geometry">
            <mxPoint x="2100" y="260" as="sourcePoint" />
            <mxPoint x="2560" y="288" as="targetPoint" />
          </mxGeometry>
        </mxCell>
        <mxCell id="Zmh-kfV3eTwTil-K40oj-54" value="" style="rounded=0;html=1;labelBackgroundColor=none;endArrow=none;edgeStyle=elbowEdgeStyle;elbow=vertical;startArrow=sysMLPackCont;startSize=12;exitX=0.5;exitY=1;exitDx=0;exitDy=0;entryX=0.5;entryY=0;entryDx=0;entryDy=0;" parent="1" source="BjsAdJwaR5bysByXlGA6-8" target="BjsAdJwaR5bysByXlGA6-24" edge="1">
          <mxGeometry relative="1" as="geometry">
            <mxPoint x="2110" y="270" as="sourcePoint" />
            <mxPoint x="2570" y="298" as="targetPoint" />
          </mxGeometry>
        </mxCell>
        <mxCell id="Zmh-kfV3eTwTil-K40oj-55" value="" style="rounded=0;html=1;labelBackgroundColor=none;endArrow=none;edgeStyle=elbowEdgeStyle;elbow=vertical;startArrow=sysMLPackCont;startSize=12;exitX=0.5;exitY=1;exitDx=0;exitDy=0;entryX=0.5;entryY=0;entryDx=0;entryDy=0;" parent="1" source="BjsAdJwaR5bysByXlGA6-8" target="BjsAdJwaR5bysByXlGA6-38" edge="1">
          <mxGeometry relative="1" as="geometry">
            <mxPoint x="2120" y="280" as="sourcePoint" />
            <mxPoint x="2580" y="308" as="targetPoint" />
          </mxGeometry>
        </mxCell>
        <mxCell id="Zmh-kfV3eTwTil-K40oj-56" value="" style="rounded=0;html=1;labelBackgroundColor=none;endArrow=none;edgeStyle=elbowEdgeStyle;elbow=vertical;startArrow=sysMLPackCont;startSize=12;exitX=0.5;exitY=1;exitDx=0;exitDy=0;entryX=0.5;entryY=0;entryDx=0;entryDy=0;" parent="1" source="BjsAdJwaR5bysByXlGA6-8" target="BjsAdJwaR5bysByXlGA6-10" edge="1">
          <mxGeometry relative="1" as="geometry">
            <mxPoint x="2130" y="290" as="sourcePoint" />
            <mxPoint x="624.2857142857142" y="-70" as="targetPoint" />
          </mxGeometry>
        </mxCell>
        <mxCell id="Zmh-kfV3eTwTil-K40oj-58" value="" style="rounded=0;html=1;labelBackgroundColor=none;endArrow=none;edgeStyle=elbowEdgeStyle;elbow=vertical;startArrow=sysMLPackCont;startSize=12;exitX=0.5;exitY=1;exitDx=0;exitDy=0;entryX=0.5;entryY=0;entryDx=0;entryDy=0;" parent="1" source="BjsAdJwaR5bysByXlGA6-8" target="Zmh-kfV3eTwTil-K40oj-32" edge="1">
          <mxGeometry relative="1" as="geometry">
            <mxPoint x="2150" y="310" as="sourcePoint" />
            <mxPoint x="2610" y="338" as="targetPoint" />
          </mxGeometry>
        </mxCell>
        <mxCell id="mFlLy4qO28GGF_ROkdeg-1" value="" style="fontStyle=1;align=center;verticalAlign=middle;childLayout=stackLayout;horizontal=1;horizontalStack=0;resizeParent=1;resizeParentMax=0;resizeLast=0;marginBottom=0;" parent="1" vertex="1">
          <mxGeometry x="460" y="490" width="200" height="132" as="geometry" />
        </mxCell>
        <mxCell id="mFlLy4qO28GGF_ROkdeg-2" value="&amp;lt;&amp;lt;requirement&amp;gt;&amp;gt;" style="html=1;align=center;spacing=0;verticalAlign=middle;strokeColor=none;fillColor=none;whiteSpace=wrap;spacingTop=3;" parent="mFlLy4qO28GGF_ROkdeg-1" vertex="1">
          <mxGeometry width="200" height="16" as="geometry" />
        </mxCell>
        <mxCell id="mFlLy4qO28GGF_ROkdeg-3" value="Poids du robot" style="html=1;align=center;spacing=0;verticalAlign=middle;strokeColor=none;fillColor=none;whiteSpace=wrap;fontStyle=1" parent="mFlLy4qO28GGF_ROkdeg-1" vertex="1">
          <mxGeometry y="16" width="200" height="18" as="geometry" />
        </mxCell>
        <mxCell id="mFlLy4qO28GGF_ROkdeg-4" value="" style="line;strokeWidth=0.25;fillColor=none;align=left;verticalAlign=middle;spacingTop=-1;spacingLeft=3;spacingRight=3;rotatable=0;labelPosition=right;points=[];portConstraint=eastwest;" parent="mFlLy4qO28GGF_ROkdeg-1" vertex="1">
          <mxGeometry y="34" width="200" height="8" as="geometry" />
        </mxCell>
        <mxCell id="mFlLy4qO28GGF_ROkdeg-5" value="text=&quot;Le robot doit pouvoir transporter une masse d&#39;environ 60 kg&quot;" style="html=1;align=left;spacing=0;verticalAlign=middle;strokeColor=none;fillColor=none;whiteSpace=wrap;spacingLeft=10;" parent="mFlLy4qO28GGF_ROkdeg-1" vertex="1">
          <mxGeometry y="42" width="200" height="48" as="geometry" />
        </mxCell>
        <mxCell id="mFlLy4qO28GGF_ROkdeg-6" value="Id=&quot;1.1.2&quot;" style="html=1;align=left;spacing=0;verticalAlign=middle;strokeColor=none;fillColor=none;whiteSpace=wrap;spacingLeft=10;" parent="mFlLy4qO28GGF_ROkdeg-1" vertex="1">
          <mxGeometry y="90" width="200" height="16" as="geometry" />
        </mxCell>
        <mxCell id="mFlLy4qO28GGF_ROkdeg-7" value="" style="html=1;align=center;spacing=0;verticalAlign=middle;strokeColor=none;fillColor=none;whiteSpace=wrap;" parent="mFlLy4qO28GGF_ROkdeg-1" vertex="1">
          <mxGeometry y="106" width="200" height="26" as="geometry" />
        </mxCell>
        <mxCell id="mFlLy4qO28GGF_ROkdeg-11" value="" style="rounded=0;html=1;labelBackgroundColor=none;endArrow=none;edgeStyle=elbowEdgeStyle;elbow=vertical;startArrow=sysMLPackCont;startSize=12;exitX=0.5;exitY=1;exitDx=0;exitDy=0;entryX=0.5;entryY=0;entryDx=0;entryDy=0;" parent="1" source="BjsAdJwaR5bysByXlGA6-15" edge="1" target="dOWmHlfBPdGyiv2R1hLI-2">
          <mxGeometry relative="1" as="geometry">
            <mxPoint x="800" y="462" as="sourcePoint" />
            <mxPoint x="775" y="450" as="targetPoint" />
          </mxGeometry>
        </mxCell>
        <mxCell id="mFlLy4qO28GGF_ROkdeg-13" value="" style="rounded=0;html=1;labelBackgroundColor=none;endArrow=none;edgeStyle=elbowEdgeStyle;elbow=vertical;startArrow=sysMLPackCont;startSize=12;entryX=0.5;entryY=0;entryDx=0;entryDy=0;exitX=0.5;exitY=1;exitDx=0;exitDy=0;" parent="1" source="BjsAdJwaR5bysByXlGA6-15" target="mFlLy4qO28GGF_ROkdeg-2" edge="1">
          <mxGeometry relative="1" as="geometry">
            <mxPoint x="460" y="684" as="sourcePoint" />
            <mxPoint x="550" y="680" as="targetPoint" />
            <Array as="points">
              <mxPoint x="610" y="440" />
            </Array>
          </mxGeometry>
        </mxCell>
        <mxCell id="mFlLy4qO28GGF_ROkdeg-14" value="" style="rounded=0;html=1;labelBackgroundColor=none;endArrow=none;edgeStyle=elbowEdgeStyle;elbow=vertical;startArrow=sysMLPackCont;startSize=12;exitX=0.5;exitY=1;exitDx=0;exitDy=0;entryX=0.5;entryY=0;entryDx=0;entryDy=0;" parent="1" source="BjsAdJwaR5bysByXlGA6-29" target="Zmh-kfV3eTwTil-K40oj-2" edge="1">
          <mxGeometry relative="1" as="geometry">
            <mxPoint x="1810" y="242" as="sourcePoint" />
            <mxPoint x="3090" y="310" as="targetPoint" />
          </mxGeometry>
        </mxCell>
        <mxCell id="mFlLy4qO28GGF_ROkdeg-15" value="" style="rounded=0;html=1;labelBackgroundColor=none;endArrow=none;edgeStyle=elbowEdgeStyle;elbow=vertical;startArrow=sysMLPackCont;startSize=12;exitX=0.5;exitY=1;exitDx=0;exitDy=0;entryX=0.5;entryY=0;entryDx=0;entryDy=0;" parent="1" source="BjsAdJwaR5bysByXlGA6-29" target="Zmh-kfV3eTwTil-K40oj-9" edge="1">
          <mxGeometry relative="1" as="geometry">
            <mxPoint x="2550" y="462" as="sourcePoint" />
            <mxPoint x="2320" y="490" as="targetPoint" />
          </mxGeometry>
        </mxCell>
        <mxCell id="mFlLy4qO28GGF_ROkdeg-16" value="" style="rounded=0;html=1;labelBackgroundColor=none;endArrow=none;edgeStyle=elbowEdgeStyle;elbow=vertical;startArrow=sysMLPackCont;startSize=12;exitX=0.5;exitY=1;exitDx=0;exitDy=0;entryX=0.5;entryY=0;entryDx=0;entryDy=0;" parent="1" source="Zmh-kfV3eTwTil-K40oj-7" target="Zmh-kfV3eTwTil-K40oj-16" edge="1">
          <mxGeometry relative="1" as="geometry">
            <mxPoint x="2550" y="462" as="sourcePoint" />
            <mxPoint x="2320" y="490" as="targetPoint" />
          </mxGeometry>
        </mxCell>
        <mxCell id="DIkkWQ_dd3_0cyvRfukZ-1" value="" style="fontStyle=1;align=center;verticalAlign=middle;childLayout=stackLayout;horizontal=1;horizontalStack=0;resizeParent=1;resizeParentMax=0;resizeLast=0;marginBottom=0;" parent="1" vertex="1">
          <mxGeometry x="1100" y="300" width="200" height="120" as="geometry" />
        </mxCell>
        <mxCell id="DIkkWQ_dd3_0cyvRfukZ-2" value="&amp;lt;&amp;lt;requirement&amp;gt;&amp;gt;" style="html=1;align=center;spacing=0;verticalAlign=middle;strokeColor=none;fillColor=none;whiteSpace=wrap;spacingTop=3;" parent="DIkkWQ_dd3_0cyvRfukZ-1" vertex="1">
          <mxGeometry width="200" height="16" as="geometry" />
        </mxCell>
        <mxCell id="DIkkWQ_dd3_0cyvRfukZ-3" value="Pénétromètre" style="html=1;align=center;spacing=0;verticalAlign=middle;strokeColor=none;fillColor=none;whiteSpace=wrap;fontStyle=1" parent="DIkkWQ_dd3_0cyvRfukZ-1" vertex="1">
          <mxGeometry y="16" width="200" height="18" as="geometry" />
        </mxCell>
        <mxCell id="DIkkWQ_dd3_0cyvRfukZ-4" value="" style="line;strokeWidth=0.25;fillColor=none;align=left;verticalAlign=middle;spacingTop=-1;spacingLeft=3;spacingRight=3;rotatable=0;labelPosition=right;points=[];portConstraint=eastwest;" parent="DIkkWQ_dd3_0cyvRfukZ-1" vertex="1">
          <mxGeometry y="34" width="200" height="8" as="geometry" />
        </mxCell>
        <mxCell id="DIkkWQ_dd3_0cyvRfukZ-5" value="text=&quot;Le pénétromètre servira à mesurer l&#39;état du terrain.&quot;" style="html=1;align=left;spacing=0;verticalAlign=middle;strokeColor=none;fillColor=none;whiteSpace=wrap;spacingLeft=10;" parent="DIkkWQ_dd3_0cyvRfukZ-1" vertex="1">
          <mxGeometry y="42" width="200" height="48" as="geometry" />
        </mxCell>
        <mxCell id="DIkkWQ_dd3_0cyvRfukZ-6" value="Id=&quot;1.1&quot;" style="html=1;align=left;spacing=0;verticalAlign=middle;strokeColor=none;fillColor=none;whiteSpace=wrap;spacingLeft=10;" parent="DIkkWQ_dd3_0cyvRfukZ-1" vertex="1">
          <mxGeometry y="90" width="200" height="16" as="geometry" />
        </mxCell>
        <mxCell id="DIkkWQ_dd3_0cyvRfukZ-7" value="" style="html=1;align=center;spacing=0;verticalAlign=middle;strokeColor=none;fillColor=none;whiteSpace=wrap;" parent="DIkkWQ_dd3_0cyvRfukZ-1" vertex="1">
          <mxGeometry y="106" width="200" height="14" as="geometry" />
        </mxCell>
        <mxCell id="DIkkWQ_dd3_0cyvRfukZ-8" value="" style="rounded=0;html=1;labelBackgroundColor=none;endArrow=none;edgeStyle=elbowEdgeStyle;elbow=vertical;startArrow=sysMLPackCont;startSize=12;exitX=0.5;exitY=1;exitDx=0;exitDy=0;entryX=0.5;entryY=0;entryDx=0;entryDy=0;" parent="1" source="DIkkWQ_dd3_0cyvRfukZ-7" target="DIkkWQ_dd3_0cyvRfukZ-10" edge="1">
          <mxGeometry relative="1" as="geometry">
            <mxPoint x="1250" y="430" as="sourcePoint" />
            <mxPoint x="1260" y="510" as="targetPoint" />
          </mxGeometry>
        </mxCell>
        <mxCell id="DIkkWQ_dd3_0cyvRfukZ-9" value="" style="fontStyle=1;align=center;verticalAlign=middle;childLayout=stackLayout;horizontal=1;horizontalStack=0;resizeParent=1;resizeParentMax=0;resizeLast=0;marginBottom=0;" parent="1" vertex="1">
          <mxGeometry x="990" y="489" width="200" height="142" as="geometry" />
        </mxCell>
        <mxCell id="DIkkWQ_dd3_0cyvRfukZ-10" value="&amp;lt;&amp;lt;requirement&amp;gt;&amp;gt;" style="html=1;align=center;spacing=0;verticalAlign=middle;strokeColor=none;fillColor=none;whiteSpace=wrap;spacingTop=3;" parent="DIkkWQ_dd3_0cyvRfukZ-9" vertex="1">
          <mxGeometry width="200" height="16" as="geometry" />
        </mxCell>
        <mxCell id="DIkkWQ_dd3_0cyvRfukZ-11" value="Collecter les données" style="html=1;align=center;spacing=0;verticalAlign=middle;strokeColor=none;fillColor=none;whiteSpace=wrap;fontStyle=1" parent="DIkkWQ_dd3_0cyvRfukZ-9" vertex="1">
          <mxGeometry y="16" width="200" height="18" as="geometry" />
        </mxCell>
        <mxCell id="DIkkWQ_dd3_0cyvRfukZ-12" value="" style="line;strokeWidth=0.25;fillColor=none;align=left;verticalAlign=middle;spacingTop=-1;spacingLeft=3;spacingRight=3;rotatable=0;labelPosition=right;points=[];portConstraint=eastwest;" parent="DIkkWQ_dd3_0cyvRfukZ-9" vertex="1">
          <mxGeometry y="34" width="200" height="8" as="geometry" />
        </mxCell>
        <mxCell id="DIkkWQ_dd3_0cyvRfukZ-13" value="text=&quot;Les capteurs devront mesurer l&#39;humidité du sol ainsi que la température de la piste&quot;" style="html=1;align=left;spacing=0;verticalAlign=middle;strokeColor=none;fillColor=none;whiteSpace=wrap;spacingLeft=10;" parent="DIkkWQ_dd3_0cyvRfukZ-9" vertex="1">
          <mxGeometry y="42" width="200" height="58" as="geometry" />
        </mxCell>
        <mxCell id="DIkkWQ_dd3_0cyvRfukZ-14" value="Id=&quot;1.2.1&quot;" style="html=1;align=left;spacing=0;verticalAlign=middle;strokeColor=none;fillColor=none;whiteSpace=wrap;spacingLeft=10;" parent="DIkkWQ_dd3_0cyvRfukZ-9" vertex="1">
          <mxGeometry y="100" width="200" height="16" as="geometry" />
        </mxCell>
        <mxCell id="DIkkWQ_dd3_0cyvRfukZ-15" value="" style="html=1;align=center;spacing=0;verticalAlign=middle;strokeColor=none;fillColor=none;whiteSpace=wrap;" parent="DIkkWQ_dd3_0cyvRfukZ-9" vertex="1">
          <mxGeometry y="116" width="200" height="26" as="geometry" />
        </mxCell>
        <mxCell id="DIkkWQ_dd3_0cyvRfukZ-37" value="" style="rounded=0;html=1;labelBackgroundColor=none;endArrow=none;edgeStyle=elbowEdgeStyle;elbow=vertical;startArrow=sysMLPackCont;startSize=12;exitX=0.5;exitY=1;exitDx=0;exitDy=0;entryX=0.5;entryY=0;entryDx=0;entryDy=0;" parent="1" source="Zmh-kfV3eTwTil-K40oj-37" target="Zmh-kfV3eTwTil-K40oj-39" edge="1">
          <mxGeometry relative="1" as="geometry">
            <mxPoint x="2550" y="462" as="sourcePoint" />
            <mxPoint x="2650" y="499" as="targetPoint" />
          </mxGeometry>
        </mxCell>
        <mxCell id="DIkkWQ_dd3_0cyvRfukZ-45" value="" style="rounded=0;html=1;labelBackgroundColor=none;endArrow=none;edgeStyle=elbowEdgeStyle;elbow=vertical;startArrow=sysMLPackCont;startSize=12;exitX=0.5;exitY=1;exitDx=0;exitDy=0;entryX=0.5;entryY=0;entryDx=0;entryDy=0;" parent="1" source="BjsAdJwaR5bysByXlGA6-8" target="DIkkWQ_dd3_0cyvRfukZ-2" edge="1">
          <mxGeometry relative="1" as="geometry">
            <mxPoint x="1690" y="242" as="sourcePoint" />
            <mxPoint x="1690" y="310" as="targetPoint" />
          </mxGeometry>
        </mxCell>
        <mxCell id="dOWmHlfBPdGyiv2R1hLI-1" value="" style="fontStyle=1;align=center;verticalAlign=middle;childLayout=stackLayout;horizontal=1;horizontalStack=0;resizeParent=1;resizeParentMax=0;resizeLast=0;marginBottom=0;" parent="1" vertex="1">
          <mxGeometry x="675" y="490" width="200" height="140" as="geometry" />
        </mxCell>
        <mxCell id="dOWmHlfBPdGyiv2R1hLI-2" value="&amp;lt;&amp;lt;requirement&amp;gt;&amp;gt;" style="html=1;align=center;spacing=0;verticalAlign=middle;strokeColor=none;fillColor=none;whiteSpace=wrap;spacingTop=3;" parent="dOWmHlfBPdGyiv2R1hLI-1" vertex="1">
          <mxGeometry width="200" height="16" as="geometry" />
        </mxCell>
        <mxCell id="dOWmHlfBPdGyiv2R1hLI-3" value="Déplacer le pénétromètre" style="html=1;align=center;spacing=0;verticalAlign=middle;strokeColor=none;fillColor=none;whiteSpace=wrap;fontStyle=1" parent="dOWmHlfBPdGyiv2R1hLI-1" vertex="1">
          <mxGeometry y="16" width="200" height="18" as="geometry" />
        </mxCell>
        <mxCell id="dOWmHlfBPdGyiv2R1hLI-4" value="" style="line;strokeWidth=0.25;fillColor=none;align=left;verticalAlign=middle;spacingTop=-1;spacingLeft=3;spacingRight=3;rotatable=0;labelPosition=right;points=[];portConstraint=eastwest;" parent="dOWmHlfBPdGyiv2R1hLI-1" vertex="1">
          <mxGeometry y="34" width="200" height="8" as="geometry" />
        </mxCell>
        <mxCell id="dOWmHlfBPdGyiv2R1hLI-5" value="text=&quot;Le robot doit être capable de déplacer le pénétromètre à différents endroits de la piste&quot;" style="html=1;align=left;spacing=0;verticalAlign=middle;strokeColor=none;fillColor=none;whiteSpace=wrap;spacingLeft=10;" parent="dOWmHlfBPdGyiv2R1hLI-1" vertex="1">
          <mxGeometry y="42" width="200" height="58" as="geometry" />
        </mxCell>
        <mxCell id="dOWmHlfBPdGyiv2R1hLI-6" value="Id=&quot;1.1.1&quot;" style="html=1;align=left;spacing=0;verticalAlign=middle;strokeColor=none;fillColor=none;whiteSpace=wrap;spacingLeft=10;" parent="dOWmHlfBPdGyiv2R1hLI-1" vertex="1">
          <mxGeometry y="100" width="200" height="14" as="geometry" />
        </mxCell>
        <mxCell id="nH7711_lkkloEZDmwjDv-62" style="edgeStyle=orthogonalEdgeStyle;rounded=0;orthogonalLoop=1;jettySize=auto;html=1;exitX=0.5;exitY=1;exitDx=0;exitDy=0;" edge="1" parent="dOWmHlfBPdGyiv2R1hLI-1" source="dOWmHlfBPdGyiv2R1hLI-7">
          <mxGeometry relative="1" as="geometry">
            <mxPoint x="100" y="140.33333333333348" as="targetPoint" />
          </mxGeometry>
        </mxCell>
        <mxCell id="dOWmHlfBPdGyiv2R1hLI-7" value="" style="html=1;align=center;spacing=0;verticalAlign=middle;strokeColor=none;fillColor=none;whiteSpace=wrap;" parent="dOWmHlfBPdGyiv2R1hLI-1" vertex="1">
          <mxGeometry y="114" width="200" height="26" as="geometry" />
        </mxCell>
        <mxCell id="dOWmHlfBPdGyiv2R1hLI-15" value="" style="fontStyle=1;align=center;verticalAlign=middle;childLayout=stackLayout;horizontal=1;horizontalStack=0;resizeParent=1;resizeParentMax=0;resizeLast=0;marginBottom=0;" parent="1" vertex="1">
          <mxGeometry x="780" y="690" width="200" height="108" as="geometry" />
        </mxCell>
        <mxCell id="dOWmHlfBPdGyiv2R1hLI-16" value="&amp;lt;&amp;lt;requirement&amp;gt;&amp;gt;" style="html=1;align=center;spacing=0;verticalAlign=middle;strokeColor=none;fillColor=none;whiteSpace=wrap;spacingTop=3;" parent="dOWmHlfBPdGyiv2R1hLI-15" vertex="1">
          <mxGeometry width="200" height="16" as="geometry" />
        </mxCell>
        <mxCell id="dOWmHlfBPdGyiv2R1hLI-17" value="Suivre une trajectoire" style="html=1;align=center;spacing=0;verticalAlign=middle;strokeColor=none;fillColor=none;whiteSpace=wrap;fontStyle=1" parent="dOWmHlfBPdGyiv2R1hLI-15" vertex="1">
          <mxGeometry y="16" width="200" height="24" as="geometry" />
        </mxCell>
        <mxCell id="dOWmHlfBPdGyiv2R1hLI-18" value="" style="line;strokeWidth=0.25;fillColor=none;align=left;verticalAlign=middle;spacingTop=-1;spacingLeft=3;spacingRight=3;rotatable=0;labelPosition=right;points=[];portConstraint=eastwest;" parent="dOWmHlfBPdGyiv2R1hLI-15" vertex="1">
          <mxGeometry y="40" width="200" height="8" as="geometry" />
        </mxCell>
        <mxCell id="dOWmHlfBPdGyiv2R1hLI-19" value="text=&quot;Le robot devra suivre une trajectoire&quot;" style="html=1;align=left;spacing=0;verticalAlign=middle;strokeColor=none;fillColor=none;whiteSpace=wrap;spacingLeft=10;" parent="dOWmHlfBPdGyiv2R1hLI-15" vertex="1">
          <mxGeometry y="48" width="200" height="32" as="geometry" />
        </mxCell>
        <mxCell id="dOWmHlfBPdGyiv2R1hLI-20" value="Id=&quot;1.1.1.2&quot;" style="html=1;align=left;spacing=0;verticalAlign=middle;strokeColor=none;fillColor=none;whiteSpace=wrap;spacingLeft=10;" parent="dOWmHlfBPdGyiv2R1hLI-15" vertex="1">
          <mxGeometry y="80" width="200" height="16" as="geometry" />
        </mxCell>
        <mxCell id="dOWmHlfBPdGyiv2R1hLI-21" value="" style="html=1;align=center;spacing=0;verticalAlign=middle;strokeColor=none;fillColor=none;whiteSpace=wrap;" parent="dOWmHlfBPdGyiv2R1hLI-15" vertex="1">
          <mxGeometry y="96" width="200" height="12" as="geometry" />
        </mxCell>
        <mxCell id="dOWmHlfBPdGyiv2R1hLI-23" value="" style="fontStyle=1;align=center;verticalAlign=middle;childLayout=stackLayout;horizontal=1;horizontalStack=0;resizeParent=1;resizeParentMax=0;resizeLast=0;marginBottom=0;" parent="1" vertex="1">
          <mxGeometry x="560" y="690" width="200" height="118" as="geometry" />
        </mxCell>
        <mxCell id="dOWmHlfBPdGyiv2R1hLI-24" value="&amp;lt;&amp;lt;requirement&amp;gt;&amp;gt;" style="html=1;align=center;spacing=0;verticalAlign=middle;strokeColor=none;fillColor=none;whiteSpace=wrap;spacingTop=3;" parent="dOWmHlfBPdGyiv2R1hLI-23" vertex="1">
          <mxGeometry width="200" height="16" as="geometry" />
        </mxCell>
        <mxCell id="dOWmHlfBPdGyiv2R1hLI-25" value="Vitesse de deplacement" style="html=1;align=center;spacing=0;verticalAlign=middle;strokeColor=none;fillColor=none;whiteSpace=wrap;fontStyle=1" parent="dOWmHlfBPdGyiv2R1hLI-23" vertex="1">
          <mxGeometry y="16" width="200" height="18" as="geometry" />
        </mxCell>
        <mxCell id="dOWmHlfBPdGyiv2R1hLI-26" value="" style="line;strokeWidth=0.25;fillColor=none;align=left;verticalAlign=middle;spacingTop=-1;spacingLeft=3;spacingRight=3;rotatable=0;labelPosition=right;points=[];portConstraint=eastwest;" parent="dOWmHlfBPdGyiv2R1hLI-23" vertex="1">
          <mxGeometry y="34" width="200" height="8" as="geometry" />
        </mxCell>
        <mxCell id="dOWmHlfBPdGyiv2R1hLI-27" value="text=&quot;Le robot doit se déplacer à différents endroit de la piste à une vitesse moyenne de 50 cm/s&quot;" style="html=1;align=left;spacing=0;verticalAlign=middle;strokeColor=none;fillColor=none;whiteSpace=wrap;spacingLeft=10;" parent="dOWmHlfBPdGyiv2R1hLI-23" vertex="1">
          <mxGeometry y="42" width="200" height="48" as="geometry" />
        </mxCell>
        <mxCell id="dOWmHlfBPdGyiv2R1hLI-28" value="Id=&quot;1.1.1.1&quot;" style="html=1;align=left;spacing=0;verticalAlign=middle;strokeColor=none;fillColor=none;whiteSpace=wrap;spacingLeft=10;" parent="dOWmHlfBPdGyiv2R1hLI-23" vertex="1">
          <mxGeometry y="90" width="200" height="16" as="geometry" />
        </mxCell>
        <mxCell id="dOWmHlfBPdGyiv2R1hLI-29" value="" style="html=1;align=center;spacing=0;verticalAlign=middle;strokeColor=none;fillColor=none;whiteSpace=wrap;" parent="dOWmHlfBPdGyiv2R1hLI-23" vertex="1">
          <mxGeometry y="106" width="200" height="12" as="geometry" />
        </mxCell>
        <mxCell id="dOWmHlfBPdGyiv2R1hLI-30" value="" style="fontStyle=1;align=center;verticalAlign=middle;childLayout=stackLayout;horizontal=1;horizontalStack=0;resizeParent=1;resizeParentMax=0;resizeLast=0;marginBottom=0;" parent="1" vertex="1">
          <mxGeometry x="450" y="860" width="200" height="132" as="geometry" />
        </mxCell>
        <mxCell id="dOWmHlfBPdGyiv2R1hLI-31" value="&amp;lt;&amp;lt;requirement&amp;gt;&amp;gt;" style="html=1;align=center;spacing=0;verticalAlign=middle;strokeColor=none;fillColor=none;whiteSpace=wrap;spacingTop=3;" parent="dOWmHlfBPdGyiv2R1hLI-30" vertex="1">
          <mxGeometry width="200" height="16" as="geometry" />
        </mxCell>
        <mxCell id="dOWmHlfBPdGyiv2R1hLI-32" value="Eviter les obstacles" style="html=1;align=center;spacing=0;verticalAlign=middle;strokeColor=none;fillColor=none;whiteSpace=wrap;fontStyle=1" parent="dOWmHlfBPdGyiv2R1hLI-30" vertex="1">
          <mxGeometry y="16" width="200" height="18" as="geometry" />
        </mxCell>
        <mxCell id="dOWmHlfBPdGyiv2R1hLI-33" value="" style="line;strokeWidth=0.25;fillColor=none;align=left;verticalAlign=middle;spacingTop=-1;spacingLeft=3;spacingRight=3;rotatable=0;labelPosition=right;points=[];portConstraint=eastwest;" parent="dOWmHlfBPdGyiv2R1hLI-30" vertex="1">
          <mxGeometry y="34" width="200" height="8" as="geometry" />
        </mxCell>
        <mxCell id="dOWmHlfBPdGyiv2R1hLI-34" value="text=&quot;Pendant sa trajectoire le robot devra éviter les obstacles qu&#39;il rencontrera&quot;" style="html=1;align=left;spacing=0;verticalAlign=middle;strokeColor=none;fillColor=none;whiteSpace=wrap;spacingLeft=10;" parent="dOWmHlfBPdGyiv2R1hLI-30" vertex="1">
          <mxGeometry y="42" width="200" height="48" as="geometry" />
        </mxCell>
        <mxCell id="dOWmHlfBPdGyiv2R1hLI-35" value="Id=&quot;1.1.1.2.1&lt;span style=&quot;background-color: transparent; color: light-dark(rgb(0, 0, 0), rgb(255, 255, 255));&quot;&gt;&quot;&lt;/span&gt;" style="html=1;align=left;spacing=0;verticalAlign=middle;strokeColor=none;fillColor=none;whiteSpace=wrap;spacingLeft=10;" parent="dOWmHlfBPdGyiv2R1hLI-30" vertex="1">
          <mxGeometry y="90" width="200" height="16" as="geometry" />
        </mxCell>
        <mxCell id="dOWmHlfBPdGyiv2R1hLI-36" value="" style="html=1;align=center;spacing=0;verticalAlign=middle;strokeColor=none;fillColor=none;whiteSpace=wrap;" parent="dOWmHlfBPdGyiv2R1hLI-30" vertex="1">
          <mxGeometry y="106" width="200" height="26" as="geometry" />
        </mxCell>
        <mxCell id="dOWmHlfBPdGyiv2R1hLI-37" value="" style="fontStyle=1;align=center;verticalAlign=middle;childLayout=stackLayout;horizontal=1;horizontalStack=0;resizeParent=1;resizeParentMax=0;resizeLast=0;marginBottom=0;" parent="1" vertex="1">
          <mxGeometry x="450" y="1030" width="200" height="142" as="geometry" />
        </mxCell>
        <mxCell id="dOWmHlfBPdGyiv2R1hLI-38" value="&amp;lt;&amp;lt;requirement&amp;gt;&amp;gt;" style="html=1;align=center;spacing=0;verticalAlign=middle;strokeColor=none;fillColor=none;whiteSpace=wrap;spacingTop=3;" parent="dOWmHlfBPdGyiv2R1hLI-37" vertex="1">
          <mxGeometry width="200" height="16" as="geometry" />
        </mxCell>
        <mxCell id="dOWmHlfBPdGyiv2R1hLI-39" value="Détecter les obstacles" style="html=1;align=center;spacing=0;verticalAlign=middle;strokeColor=none;fillColor=none;whiteSpace=wrap;fontStyle=1" parent="dOWmHlfBPdGyiv2R1hLI-37" vertex="1">
          <mxGeometry y="16" width="200" height="18" as="geometry" />
        </mxCell>
        <mxCell id="dOWmHlfBPdGyiv2R1hLI-40" value="" style="line;strokeWidth=0.25;fillColor=none;align=left;verticalAlign=middle;spacingTop=-1;spacingLeft=3;spacingRight=3;rotatable=0;labelPosition=right;points=[];portConstraint=eastwest;" parent="dOWmHlfBPdGyiv2R1hLI-37" vertex="1">
          <mxGeometry y="34" width="200" height="8" as="geometry" />
        </mxCell>
        <mxCell id="dOWmHlfBPdGyiv2R1hLI-41" value="text=&quot;Pour éviter les obstacles le robot devra détecter les obstacle sur sa trajectoire à une distance de 3m&quot;" style="html=1;align=left;spacing=0;verticalAlign=middle;strokeColor=none;fillColor=none;whiteSpace=wrap;spacingLeft=10;" parent="dOWmHlfBPdGyiv2R1hLI-37" vertex="1">
          <mxGeometry y="42" width="200" height="58" as="geometry" />
        </mxCell>
        <mxCell id="dOWmHlfBPdGyiv2R1hLI-42" value="Id=&quot;1.1.1.2.1.1&quot;" style="html=1;align=left;spacing=0;verticalAlign=middle;strokeColor=none;fillColor=none;whiteSpace=wrap;spacingLeft=10;" parent="dOWmHlfBPdGyiv2R1hLI-37" vertex="1">
          <mxGeometry y="100" width="200" height="16" as="geometry" />
        </mxCell>
        <mxCell id="dOWmHlfBPdGyiv2R1hLI-43" value="" style="html=1;align=center;spacing=0;verticalAlign=middle;strokeColor=none;fillColor=none;whiteSpace=wrap;" parent="dOWmHlfBPdGyiv2R1hLI-37" vertex="1">
          <mxGeometry y="116" width="200" height="26" as="geometry" />
        </mxCell>
        <mxCell id="dOWmHlfBPdGyiv2R1hLI-54" value="" style="fontStyle=1;align=center;verticalAlign=middle;childLayout=stackLayout;horizontal=1;horizontalStack=0;resizeParent=1;resizeParentMax=0;resizeLast=0;marginBottom=0;" parent="1" vertex="1">
          <mxGeometry x="660" y="860" width="210" height="112" as="geometry" />
        </mxCell>
        <mxCell id="dOWmHlfBPdGyiv2R1hLI-55" value="&amp;lt;&amp;lt;requirement&amp;gt;&amp;gt;" style="html=1;align=center;spacing=0;verticalAlign=middle;strokeColor=none;fillColor=none;whiteSpace=wrap;spacingTop=3;" parent="dOWmHlfBPdGyiv2R1hLI-54" vertex="1">
          <mxGeometry width="210" height="16" as="geometry" />
        </mxCell>
        <mxCell id="dOWmHlfBPdGyiv2R1hLI-56" value="S&#39;orienter" style="html=1;align=center;spacing=0;verticalAlign=middle;strokeColor=none;fillColor=none;whiteSpace=wrap;fontStyle=1" parent="dOWmHlfBPdGyiv2R1hLI-54" vertex="1">
          <mxGeometry y="16" width="210" height="18" as="geometry" />
        </mxCell>
        <mxCell id="dOWmHlfBPdGyiv2R1hLI-57" value="" style="line;strokeWidth=0.25;fillColor=none;align=left;verticalAlign=middle;spacingTop=-1;spacingLeft=3;spacingRight=3;rotatable=0;labelPosition=right;points=[];portConstraint=eastwest;" parent="dOWmHlfBPdGyiv2R1hLI-54" vertex="1">
          <mxGeometry y="34" width="210" height="8" as="geometry" />
        </mxCell>
        <mxCell id="dOWmHlfBPdGyiv2R1hLI-58" value="text=&quot;Pour suivre sa trajectoire le robot devra s&#39;orienter intelligement.&quot;" style="html=1;align=left;spacing=0;verticalAlign=middle;strokeColor=none;fillColor=none;whiteSpace=wrap;spacingLeft=10;" parent="dOWmHlfBPdGyiv2R1hLI-54" vertex="1">
          <mxGeometry y="42" width="210" height="28" as="geometry" />
        </mxCell>
        <mxCell id="dOWmHlfBPdGyiv2R1hLI-59" value="Id=&quot;1.1.1.2.2&quot;" style="html=1;align=left;spacing=0;verticalAlign=middle;strokeColor=none;fillColor=none;whiteSpace=wrap;spacingLeft=10;" parent="dOWmHlfBPdGyiv2R1hLI-54" vertex="1">
          <mxGeometry y="70" width="210" height="16" as="geometry" />
        </mxCell>
        <mxCell id="dOWmHlfBPdGyiv2R1hLI-60" value="" style="html=1;align=center;spacing=0;verticalAlign=middle;strokeColor=none;fillColor=none;whiteSpace=wrap;" parent="dOWmHlfBPdGyiv2R1hLI-54" vertex="1">
          <mxGeometry y="86" width="210" height="26" as="geometry" />
        </mxCell>
        <mxCell id="dOWmHlfBPdGyiv2R1hLI-62" value="" style="fontStyle=1;align=center;verticalAlign=middle;childLayout=stackLayout;horizontal=1;horizontalStack=0;resizeParent=1;resizeParentMax=0;resizeLast=0;marginBottom=0;" parent="1" vertex="1">
          <mxGeometry x="890" y="860" width="200" height="132" as="geometry" />
        </mxCell>
        <mxCell id="dOWmHlfBPdGyiv2R1hLI-63" value="&amp;lt;&amp;lt;requirement&amp;gt;&amp;gt;" style="html=1;align=center;spacing=0;verticalAlign=middle;strokeColor=none;fillColor=none;whiteSpace=wrap;spacingTop=3;" parent="dOWmHlfBPdGyiv2R1hLI-62" vertex="1">
          <mxGeometry width="200" height="16" as="geometry" />
        </mxCell>
        <mxCell id="dOWmHlfBPdGyiv2R1hLI-64" value="Se géolocaliser" style="html=1;align=center;spacing=0;verticalAlign=middle;strokeColor=none;fillColor=none;whiteSpace=wrap;fontStyle=1" parent="dOWmHlfBPdGyiv2R1hLI-62" vertex="1">
          <mxGeometry y="16" width="200" height="18" as="geometry" />
        </mxCell>
        <mxCell id="dOWmHlfBPdGyiv2R1hLI-65" value="" style="line;strokeWidth=0.25;fillColor=none;align=left;verticalAlign=middle;spacingTop=-1;spacingLeft=3;spacingRight=3;rotatable=0;labelPosition=right;points=[];portConstraint=eastwest;" parent="dOWmHlfBPdGyiv2R1hLI-62" vertex="1">
          <mxGeometry y="34" width="200" height="8" as="geometry" />
        </mxCell>
        <mxCell id="dOWmHlfBPdGyiv2R1hLI-66" value="text=&quot;Pour suivre sa trajectiore le robot devra pouvoir se géolocaliser avec une précision de 1 m.&quot;" style="html=1;align=left;spacing=0;verticalAlign=middle;strokeColor=none;fillColor=none;whiteSpace=wrap;spacingLeft=10;" parent="dOWmHlfBPdGyiv2R1hLI-62" vertex="1">
          <mxGeometry y="42" width="200" height="48" as="geometry" />
        </mxCell>
        <mxCell id="dOWmHlfBPdGyiv2R1hLI-67" value="Id=&quot;1.1.1.2.3&quot;" style="html=1;align=left;spacing=0;verticalAlign=middle;strokeColor=none;fillColor=none;whiteSpace=wrap;spacingLeft=10;" parent="dOWmHlfBPdGyiv2R1hLI-62" vertex="1">
          <mxGeometry y="90" width="200" height="16" as="geometry" />
        </mxCell>
        <mxCell id="dOWmHlfBPdGyiv2R1hLI-68" value="" style="html=1;align=center;spacing=0;verticalAlign=middle;strokeColor=none;fillColor=none;whiteSpace=wrap;" parent="dOWmHlfBPdGyiv2R1hLI-62" vertex="1">
          <mxGeometry y="106" width="200" height="26" as="geometry" />
        </mxCell>
        <mxCell id="njCDaXEooYSArn2EEXdC-8" value="" style="fontStyle=1;align=center;verticalAlign=middle;childLayout=stackLayout;horizontal=1;horizontalStack=0;resizeParent=1;resizeParentMax=0;resizeLast=0;marginBottom=0;" parent="1" vertex="1">
          <mxGeometry x="1110" y="860" width="200" height="142" as="geometry" />
        </mxCell>
        <mxCell id="njCDaXEooYSArn2EEXdC-9" value="&amp;lt;&amp;lt;requirement&amp;gt;&amp;gt;" style="html=1;align=center;spacing=0;verticalAlign=middle;strokeColor=none;fillColor=none;whiteSpace=wrap;spacingTop=3;" parent="njCDaXEooYSArn2EEXdC-8" vertex="1">
          <mxGeometry width="200" height="16" as="geometry" />
        </mxCell>
        <mxCell id="njCDaXEooYSArn2EEXdC-10" value="Recevoir une trajectoire" style="html=1;align=center;spacing=0;verticalAlign=middle;strokeColor=none;fillColor=none;whiteSpace=wrap;fontStyle=1" parent="njCDaXEooYSArn2EEXdC-8" vertex="1">
          <mxGeometry y="16" width="200" height="18" as="geometry" />
        </mxCell>
        <mxCell id="njCDaXEooYSArn2EEXdC-11" value="" style="line;strokeWidth=0.25;fillColor=none;align=left;verticalAlign=middle;spacingTop=-1;spacingLeft=3;spacingRight=3;rotatable=0;labelPosition=right;points=[];portConstraint=eastwest;" parent="njCDaXEooYSArn2EEXdC-8" vertex="1">
          <mxGeometry y="34" width="200" height="8" as="geometry" />
        </mxCell>
        <mxCell id="njCDaXEooYSArn2EEXdC-12" value="text=&quot;Le robot doit atteindre un endroit de la piste en s&#39;orientant vers ce dernier et parcourir une distance donnée&quot;" style="html=1;align=left;spacing=0;verticalAlign=middle;strokeColor=none;fillColor=none;whiteSpace=wrap;spacingLeft=10;" parent="njCDaXEooYSArn2EEXdC-8" vertex="1">
          <mxGeometry y="42" width="200" height="58" as="geometry" />
        </mxCell>
        <mxCell id="njCDaXEooYSArn2EEXdC-13" value="Id=&quot;1.1.1.2.4&quot;" style="html=1;align=left;spacing=0;verticalAlign=middle;strokeColor=none;fillColor=none;whiteSpace=wrap;spacingLeft=10;" parent="njCDaXEooYSArn2EEXdC-8" vertex="1">
          <mxGeometry y="100" width="200" height="16" as="geometry" />
        </mxCell>
        <mxCell id="njCDaXEooYSArn2EEXdC-14" value="" style="html=1;align=center;spacing=0;verticalAlign=middle;strokeColor=none;fillColor=none;whiteSpace=wrap;" parent="njCDaXEooYSArn2EEXdC-8" vertex="1">
          <mxGeometry y="116" width="200" height="26" as="geometry" />
        </mxCell>
        <mxCell id="nH7711_lkkloEZDmwjDv-9" value="" style="fontStyle=1;align=center;verticalAlign=middle;childLayout=stackLayout;horizontal=1;horizontalStack=0;resizeParent=1;resizeParentMax=0;resizeLast=0;marginBottom=0;" vertex="1" parent="1">
          <mxGeometry x="2970" y="489" width="200" height="122" as="geometry" />
        </mxCell>
        <mxCell id="nH7711_lkkloEZDmwjDv-10" value="&amp;lt;&amp;lt;requirement&amp;gt;&amp;gt;" style="html=1;align=center;spacing=0;verticalAlign=middle;strokeColor=none;fillColor=none;whiteSpace=wrap;spacingTop=3;" vertex="1" parent="nH7711_lkkloEZDmwjDv-9">
          <mxGeometry width="200" height="16" as="geometry" />
        </mxCell>
        <mxCell id="nH7711_lkkloEZDmwjDv-11" value="OS" style="html=1;align=center;spacing=0;verticalAlign=middle;strokeColor=none;fillColor=none;whiteSpace=wrap;fontStyle=1" vertex="1" parent="nH7711_lkkloEZDmwjDv-9">
          <mxGeometry y="16" width="200" height="18" as="geometry" />
        </mxCell>
        <mxCell id="nH7711_lkkloEZDmwjDv-12" value="" style="line;strokeWidth=0.25;fillColor=none;align=left;verticalAlign=middle;spacingTop=-1;spacingLeft=3;spacingRight=3;rotatable=0;labelPosition=right;points=[];portConstraint=eastwest;" vertex="1" parent="nH7711_lkkloEZDmwjDv-9">
          <mxGeometry y="34" width="200" height="8" as="geometry" />
        </mxCell>
        <mxCell id="nH7711_lkkloEZDmwjDv-13" value="text=&quot;L&#39;IHM devra être compatible windows 7 et versions supérieures&quot;" style="html=1;align=left;spacing=0;verticalAlign=middle;strokeColor=none;fillColor=none;whiteSpace=wrap;spacingLeft=10;" vertex="1" parent="nH7711_lkkloEZDmwjDv-9">
          <mxGeometry y="42" width="200" height="38" as="geometry" />
        </mxCell>
        <mxCell id="nH7711_lkkloEZDmwjDv-14" value="Id=&quot;1.5.2&quot;" style="html=1;align=left;spacing=0;verticalAlign=middle;strokeColor=none;fillColor=none;whiteSpace=wrap;spacingLeft=10;" vertex="1" parent="nH7711_lkkloEZDmwjDv-9">
          <mxGeometry y="80" width="200" height="16" as="geometry" />
        </mxCell>
        <mxCell id="nH7711_lkkloEZDmwjDv-15" value="" style="html=1;align=center;spacing=0;verticalAlign=middle;strokeColor=none;fillColor=none;whiteSpace=wrap;" vertex="1" parent="nH7711_lkkloEZDmwjDv-9">
          <mxGeometry y="96" width="200" height="26" as="geometry" />
        </mxCell>
        <mxCell id="nH7711_lkkloEZDmwjDv-17" value="" style="fontStyle=1;align=center;verticalAlign=middle;childLayout=stackLayout;horizontal=1;horizontalStack=0;resizeParent=1;resizeParentMax=0;resizeLast=0;marginBottom=0;" vertex="1" parent="1">
          <mxGeometry x="2970" y="650" width="200" height="142" as="geometry" />
        </mxCell>
        <mxCell id="nH7711_lkkloEZDmwjDv-18" value="&amp;lt;&amp;lt;requirement&amp;gt;&amp;gt;" style="html=1;align=center;spacing=0;verticalAlign=middle;strokeColor=none;fillColor=none;whiteSpace=wrap;spacingTop=3;" vertex="1" parent="nH7711_lkkloEZDmwjDv-17">
          <mxGeometry width="200" height="16" as="geometry" />
        </mxCell>
        <mxCell id="nH7711_lkkloEZDmwjDv-19" value="Mise à Jour" style="html=1;align=center;spacing=0;verticalAlign=middle;strokeColor=none;fillColor=none;whiteSpace=wrap;fontStyle=1" vertex="1" parent="nH7711_lkkloEZDmwjDv-17">
          <mxGeometry y="16" width="200" height="18" as="geometry" />
        </mxCell>
        <mxCell id="nH7711_lkkloEZDmwjDv-20" value="" style="line;strokeWidth=0.25;fillColor=none;align=left;verticalAlign=middle;spacingTop=-1;spacingLeft=3;spacingRight=3;rotatable=0;labelPosition=right;points=[];portConstraint=eastwest;" vertex="1" parent="nH7711_lkkloEZDmwjDv-17">
          <mxGeometry y="34" width="200" height="8" as="geometry" />
        </mxCell>
        <mxCell id="nH7711_lkkloEZDmwjDv-21" value="text=&quot;L&#39;IHM&amp;nbsp; ne devra pas pouvoir démarrer si une nouvelle version est disponible et n&#39;a pas été installée&quot;" style="html=1;align=left;spacing=0;verticalAlign=middle;strokeColor=none;fillColor=none;whiteSpace=wrap;spacingLeft=10;" vertex="1" parent="nH7711_lkkloEZDmwjDv-17">
          <mxGeometry y="42" width="200" height="58" as="geometry" />
        </mxCell>
        <mxCell id="nH7711_lkkloEZDmwjDv-22" value="Id=&quot;1.5.2.1&quot;" style="html=1;align=left;spacing=0;verticalAlign=middle;strokeColor=none;fillColor=none;whiteSpace=wrap;spacingLeft=10;" vertex="1" parent="nH7711_lkkloEZDmwjDv-17">
          <mxGeometry y="100" width="200" height="16" as="geometry" />
        </mxCell>
        <mxCell id="nH7711_lkkloEZDmwjDv-23" value="" style="html=1;align=center;spacing=0;verticalAlign=middle;strokeColor=none;fillColor=none;whiteSpace=wrap;" vertex="1" parent="nH7711_lkkloEZDmwjDv-17">
          <mxGeometry y="116" width="200" height="26" as="geometry" />
        </mxCell>
        <mxCell id="nH7711_lkkloEZDmwjDv-24" value="" style="rounded=0;html=1;labelBackgroundColor=none;endArrow=none;edgeStyle=elbowEdgeStyle;elbow=vertical;startArrow=sysMLPackCont;startSize=12;exitX=0.5;exitY=1;exitDx=0;exitDy=0;entryX=0.5;entryY=0;entryDx=0;entryDy=0;" edge="1" parent="1" source="nH7711_lkkloEZDmwjDv-15" target="nH7711_lkkloEZDmwjDv-18">
          <mxGeometry relative="1" as="geometry">
            <mxPoint x="2440" y="641" as="sourcePoint" />
            <mxPoint x="2440" y="680" as="targetPoint" />
          </mxGeometry>
        </mxCell>
        <mxCell id="nH7711_lkkloEZDmwjDv-25" value="" style="rounded=0;html=1;labelBackgroundColor=none;endArrow=none;edgeStyle=elbowEdgeStyle;elbow=vertical;startArrow=sysMLPackCont;startSize=12;exitX=0.5;exitY=1;exitDx=0;exitDy=0;entryX=0.5;entryY=0;entryDx=0;entryDy=0;" edge="1" parent="1" source="Zmh-kfV3eTwTil-K40oj-37" target="nH7711_lkkloEZDmwjDv-10">
          <mxGeometry relative="1" as="geometry">
            <mxPoint x="2450" y="651" as="sourcePoint" />
            <mxPoint x="2450" y="690" as="targetPoint" />
          </mxGeometry>
        </mxCell>
        <mxCell id="nH7711_lkkloEZDmwjDv-33" value="" style="fontStyle=1;align=center;verticalAlign=middle;childLayout=stackLayout;horizontal=1;horizontalStack=0;resizeParent=1;resizeParentMax=0;resizeLast=0;marginBottom=0;" vertex="1" parent="1">
          <mxGeometry x="2970" y="830" width="200" height="132" as="geometry" />
        </mxCell>
        <mxCell id="nH7711_lkkloEZDmwjDv-34" value="&amp;lt;&amp;lt;requirement&amp;gt;&amp;gt;" style="html=1;align=center;spacing=0;verticalAlign=middle;strokeColor=none;fillColor=none;whiteSpace=wrap;spacingTop=3;" vertex="1" parent="nH7711_lkkloEZDmwjDv-33">
          <mxGeometry width="200" height="16" as="geometry" />
        </mxCell>
        <mxCell id="nH7711_lkkloEZDmwjDv-35" value="Numéro Version Mise à Jour" style="html=1;align=center;spacing=0;verticalAlign=middle;strokeColor=none;fillColor=none;whiteSpace=wrap;fontStyle=1" vertex="1" parent="nH7711_lkkloEZDmwjDv-33">
          <mxGeometry y="16" width="200" height="18" as="geometry" />
        </mxCell>
        <mxCell id="nH7711_lkkloEZDmwjDv-36" value="" style="line;strokeWidth=0.25;fillColor=none;align=left;verticalAlign=middle;spacingTop=-1;spacingLeft=3;spacingRight=3;rotatable=0;labelPosition=right;points=[];portConstraint=eastwest;" vertex="1" parent="nH7711_lkkloEZDmwjDv-33">
          <mxGeometry y="34" width="200" height="8" as="geometry" />
        </mxCell>
        <mxCell id="nH7711_lkkloEZDmwjDv-37" value="text=&quot;L&#39;application doit avoir un numéro de version pour chaque Mise à Jour&quot;" style="html=1;align=left;spacing=0;verticalAlign=middle;strokeColor=none;fillColor=none;whiteSpace=wrap;spacingLeft=10;" vertex="1" parent="nH7711_lkkloEZDmwjDv-33">
          <mxGeometry y="42" width="200" height="48" as="geometry" />
        </mxCell>
        <mxCell id="nH7711_lkkloEZDmwjDv-38" value="Id=&quot;8.3.2.1&quot;" style="html=1;align=left;spacing=0;verticalAlign=middle;strokeColor=none;fillColor=none;whiteSpace=wrap;spacingLeft=10;" vertex="1" parent="nH7711_lkkloEZDmwjDv-33">
          <mxGeometry y="90" width="200" height="16" as="geometry" />
        </mxCell>
        <mxCell id="nH7711_lkkloEZDmwjDv-39" value="" style="html=1;align=center;spacing=0;verticalAlign=middle;strokeColor=none;fillColor=none;whiteSpace=wrap;" vertex="1" parent="nH7711_lkkloEZDmwjDv-33">
          <mxGeometry y="106" width="200" height="26" as="geometry" />
        </mxCell>
        <mxCell id="nH7711_lkkloEZDmwjDv-40" value="" style="fontStyle=1;align=center;verticalAlign=middle;childLayout=stackLayout;horizontal=1;horizontalStack=0;resizeParent=1;resizeParentMax=0;resizeLast=0;marginBottom=0;" vertex="1" parent="1">
          <mxGeometry x="2970" y="1020" width="200" height="142" as="geometry" />
        </mxCell>
        <mxCell id="nH7711_lkkloEZDmwjDv-41" value="&amp;lt;&amp;lt;requirement&amp;gt;&amp;gt;" style="html=1;align=center;spacing=0;verticalAlign=middle;strokeColor=none;fillColor=none;whiteSpace=wrap;spacingTop=3;" vertex="1" parent="nH7711_lkkloEZDmwjDv-40">
          <mxGeometry width="200" height="16" as="geometry" />
        </mxCell>
        <mxCell id="nH7711_lkkloEZDmwjDv-42" value="Forme Numéro Version Mise à Jour" style="html=1;align=center;spacing=0;verticalAlign=middle;strokeColor=none;fillColor=none;whiteSpace=wrap;fontStyle=1" vertex="1" parent="nH7711_lkkloEZDmwjDv-40">
          <mxGeometry y="16" width="200" height="18" as="geometry" />
        </mxCell>
        <mxCell id="nH7711_lkkloEZDmwjDv-43" value="" style="line;strokeWidth=0.25;fillColor=none;align=left;verticalAlign=middle;spacingTop=-1;spacingLeft=3;spacingRight=3;rotatable=0;labelPosition=right;points=[];portConstraint=eastwest;" vertex="1" parent="nH7711_lkkloEZDmwjDv-40">
          <mxGeometry y="34" width="200" height="8" as="geometry" />
        </mxCell>
        <mxCell id="nH7711_lkkloEZDmwjDv-44" value="text=Le numéro de version de l&#39;application sera de la forme&lt;div&gt;V.principal.secondaire.révision&quot;&lt;/div&gt;" style="html=1;align=left;spacing=0;verticalAlign=middle;strokeColor=none;fillColor=none;whiteSpace=wrap;spacingLeft=10;" vertex="1" parent="nH7711_lkkloEZDmwjDv-40">
          <mxGeometry y="42" width="200" height="58" as="geometry" />
        </mxCell>
        <mxCell id="nH7711_lkkloEZDmwjDv-45" value="Id=&quot;8.3.2.1&quot;" style="html=1;align=left;spacing=0;verticalAlign=middle;strokeColor=none;fillColor=none;whiteSpace=wrap;spacingLeft=10;" vertex="1" parent="nH7711_lkkloEZDmwjDv-40">
          <mxGeometry y="100" width="200" height="16" as="geometry" />
        </mxCell>
        <mxCell id="nH7711_lkkloEZDmwjDv-46" value="" style="html=1;align=center;spacing=0;verticalAlign=middle;strokeColor=none;fillColor=none;whiteSpace=wrap;" vertex="1" parent="nH7711_lkkloEZDmwjDv-40">
          <mxGeometry y="116" width="200" height="26" as="geometry" />
        </mxCell>
        <mxCell id="nH7711_lkkloEZDmwjDv-48" value="&amp;lt;&amp;lt;satisfy&amp;gt;&amp;gt;" style="endArrow=open;edgeStyle=none;endSize=12;dashed=1;html=1;rounded=0;entryX=0.5;entryY=1;entryDx=0;entryDy=0;exitX=0.5;exitY=0;exitDx=0;exitDy=0;" edge="1" parent="1" source="nH7711_lkkloEZDmwjDv-41" target="nH7711_lkkloEZDmwjDv-39">
          <mxGeometry relative="1" as="geometry">
            <mxPoint x="2305" y="1061" as="sourcePoint" />
            <mxPoint x="2425" y="1061" as="targetPoint" />
          </mxGeometry>
        </mxCell>
        <mxCell id="nH7711_lkkloEZDmwjDv-49" value="principal et secondaire : changement en manuel&lt;div&gt;révision : changement en automatique à chaque création d&#39;un exécutable&lt;/div&gt;" style="shape=note;size=15;align=left;spacingLeft=5;html=1;whiteSpace=wrap;align=center;" vertex="1" parent="1">
          <mxGeometry x="2550" y="1060" width="291" height="60" as="geometry" />
        </mxCell>
        <mxCell id="nH7711_lkkloEZDmwjDv-50" value="" style="endArrow=none;edgeStyle=none;dashed=1;html=1;rounded=0;entryX=0;entryY=0.5;entryDx=0;entryDy=0;exitX=0.996;exitY=0.549;exitDx=0;exitDy=0;exitPerimeter=0;" edge="1" parent="1" source="nH7711_lkkloEZDmwjDv-49" target="nH7711_lkkloEZDmwjDv-44">
          <mxGeometry relative="1" as="geometry">
            <mxPoint x="2690" y="1145" as="targetPoint" />
          </mxGeometry>
        </mxCell>
        <mxCell id="nH7711_lkkloEZDmwjDv-52" value="" style="rounded=0;html=1;labelBackgroundColor=none;endArrow=none;edgeStyle=elbowEdgeStyle;elbow=vertical;startArrow=sysMLPackCont;startSize=12;exitX=0.5;exitY=1;exitDx=0;exitDy=0;entryX=0.5;entryY=0;entryDx=0;entryDy=0;" edge="1" parent="1" source="nH7711_lkkloEZDmwjDv-23" target="nH7711_lkkloEZDmwjDv-34">
          <mxGeometry relative="1" as="geometry">
            <mxPoint x="2870" y="472" as="sourcePoint" />
            <mxPoint x="3080" y="499" as="targetPoint" />
          </mxGeometry>
        </mxCell>
        <mxCell id="nH7711_lkkloEZDmwjDv-56" value="" style="rounded=0;html=1;labelBackgroundColor=none;endArrow=none;edgeStyle=elbowEdgeStyle;elbow=vertical;startArrow=sysMLPackCont;startSize=12;exitX=0.5;exitY=1;exitDx=0;exitDy=0;entryX=0.5;entryY=0;entryDx=0;entryDy=0;" edge="1" parent="1" source="dOWmHlfBPdGyiv2R1hLI-21" target="njCDaXEooYSArn2EEXdC-9">
          <mxGeometry relative="1" as="geometry">
            <mxPoint x="795" y="758" as="sourcePoint" />
            <mxPoint x="1235" y="848.0000000000002" as="targetPoint" />
            <Array as="points">
              <mxPoint x="1020" y="820" />
            </Array>
          </mxGeometry>
        </mxCell>
        <mxCell id="nH7711_lkkloEZDmwjDv-57" value="" style="rounded=0;html=1;labelBackgroundColor=none;endArrow=none;edgeStyle=elbowEdgeStyle;elbow=vertical;startArrow=sysMLPackCont;startSize=12;exitX=0.5;exitY=1;exitDx=0;exitDy=0;" edge="1" parent="1" source="dOWmHlfBPdGyiv2R1hLI-21">
          <mxGeometry relative="1" as="geometry">
            <mxPoint x="805" y="768" as="sourcePoint" />
            <mxPoint x="940" y="860" as="targetPoint" />
            <Array as="points">
              <mxPoint x="910" y="820" />
            </Array>
          </mxGeometry>
        </mxCell>
        <mxCell id="nH7711_lkkloEZDmwjDv-58" value="" style="rounded=0;html=1;labelBackgroundColor=none;endArrow=none;edgeStyle=elbowEdgeStyle;elbow=vertical;startArrow=sysMLPackCont;startSize=12;exitX=0.5;exitY=1;exitDx=0;exitDy=0;entryX=0.5;entryY=0;entryDx=0;entryDy=0;" edge="1" parent="1" source="dOWmHlfBPdGyiv2R1hLI-21" target="dOWmHlfBPdGyiv2R1hLI-55">
          <mxGeometry relative="1" as="geometry">
            <mxPoint x="815" y="778" as="sourcePoint" />
            <mxPoint x="1255" y="868.0000000000002" as="targetPoint" />
            <Array as="points">
              <mxPoint x="800" y="820" />
            </Array>
          </mxGeometry>
        </mxCell>
        <mxCell id="nH7711_lkkloEZDmwjDv-59" value="" style="rounded=0;html=1;labelBackgroundColor=none;endArrow=none;edgeStyle=elbowEdgeStyle;elbow=vertical;startArrow=sysMLPackCont;startSize=12;exitX=0.5;exitY=1;exitDx=0;exitDy=0;entryX=0.5;entryY=0;entryDx=0;entryDy=0;" edge="1" parent="1" source="dOWmHlfBPdGyiv2R1hLI-21" target="dOWmHlfBPdGyiv2R1hLI-31">
          <mxGeometry relative="1" as="geometry">
            <mxPoint x="825" y="788" as="sourcePoint" />
            <mxPoint x="1265" y="878.0000000000002" as="targetPoint" />
            <Array as="points">
              <mxPoint x="690" y="820" />
            </Array>
          </mxGeometry>
        </mxCell>
        <mxCell id="nH7711_lkkloEZDmwjDv-63" value="" style="rounded=0;html=1;labelBackgroundColor=none;endArrow=none;edgeStyle=elbowEdgeStyle;elbow=vertical;startArrow=sysMLPackCont;startSize=12;exitX=0.5;exitY=1;exitDx=0;exitDy=0;entryX=0.5;entryY=0;entryDx=0;entryDy=0;" edge="1" parent="1" source="dOWmHlfBPdGyiv2R1hLI-7" target="dOWmHlfBPdGyiv2R1hLI-24">
          <mxGeometry relative="1" as="geometry">
            <mxPoint x="785" y="602" as="sourcePoint" />
            <mxPoint x="740" y="676" as="targetPoint" />
            <Array as="points">
              <mxPoint x="720" y="660" />
            </Array>
          </mxGeometry>
        </mxCell>
      </root>
    </mxGraphModel>
  </diagram>
</mxfile>
